<svg width="390" height="240" viewBox="0 0 390 240" fill="none" xmlns="http://www.w3.org/2000/svg">
<path d="M0 10C0 4.47716 4.47715 0 10 0H380C385.523 0 390 4.47715 390 10V240H0V10Z" fill="url(#paint0_linear)"/>
<path fill-rule="evenodd" clip-rule="evenodd" d="M108.184 149.677V164.249L96.653 158.306V143.642L108.184 149.677Z" fill="#919191"/>
<path fill-rule="evenodd" clip-rule="evenodd" d="M108.184 164.249V149.677L150.109 127.589V142.253L108.184 164.249Z" fill="#666666"/>
<path fill-rule="evenodd" clip-rule="evenodd" d="M150.109 127.589L108.184 149.677L96.653 143.642L138.582 121.65L150.109 127.589Z" fill="#BBBBBB"/>
<path fill-rule="evenodd" clip-rule="evenodd" d="M103.563 149.35V166.697L92 160.754V143.336L103.563 149.35Z" fill="#919191"/>
<path fill-rule="evenodd" clip-rule="evenodd" d="M103.563 166.697V149.35L108.204 146.93V164.281L103.563 166.697Z" fill="#666666"/>
<path fill-rule="evenodd" clip-rule="evenodd" d="M103.563 149.35L92 143.336L96.7088 140.916L108.204 146.862V146.93L103.563 149.35Z" fill="#BBBBBB"/>
<path fill-rule="evenodd" clip-rule="evenodd" d="M211.925 146.031L245.366 163.521L162.485 207L128.973 189.581L211.925 146.031Z" fill="#4B88E2"/>
<path fill-rule="evenodd" clip-rule="evenodd" d="M287.948 95.892V107.782L245.633 85.7935V73.9077L287.948 95.892Z" fill="#E6AB28"/>
<path fill-rule="evenodd" clip-rule="evenodd" d="M298 90.6537L287.948 95.892L245.633 73.9077L255.748 68.6693L298 90.6537Z" fill="#F9EA7E"/>
<path fill-rule="evenodd" clip-rule="evenodd" d="M287.948 107.782V95.892L298 90.6537V102.539L287.948 107.782Z" fill="#B355B3"/>
<path fill-rule="evenodd" clip-rule="evenodd" d="M287.948 95.892L245.633 73.9077V62.0219L287.948 84.0062V95.892Z" fill="#E6AB28"/>
<path fill-rule="evenodd" clip-rule="evenodd" d="M298 78.7639L287.948 84.0062L245.633 62.0219L255.748 56.7796L298 78.7639Z" fill="#F9EA7E"/>
<path fill-rule="evenodd" clip-rule="evenodd" d="M298 78.7639V90.6497L287.948 95.892V84.0062L298 78.7639Z" fill="#5CB7CD"/>
<path fill-rule="evenodd" clip-rule="evenodd" d="M287.948 84.0023L245.633 62.0179V50.1281L287.948 72.1165V84.0023Z" fill="#E6AB28"/>
<path fill-rule="evenodd" clip-rule="evenodd" d="M298 66.8741L287.948 72.1165L245.633 50.1281L255.748 44.8898L298 66.8741Z" fill="#F9EA7E"/>
<path fill-rule="evenodd" clip-rule="evenodd" d="M298 66.8741V78.7639L287.948 84.0023V72.1165L298 66.8741Z" fill="#FFCC00"/>
<path fill-rule="evenodd" clip-rule="evenodd" d="M287.948 72.1125V60.2267L298 54.9844V66.8702L287.948 72.1125Z" fill="#DF2B30"/>
<path fill-rule="evenodd" clip-rule="evenodd" d="M298 54.9844L287.948 60.2267L245.633 38.2423L255.748 33L298 54.9844Z" fill="#E96B79"/>
<path fill-rule="evenodd" clip-rule="evenodd" d="M287.948 60.2267V72.1125L245.633 50.1281V38.2423L287.948 60.2267Z" fill="#E03849"/>
<path fill-rule="evenodd" clip-rule="evenodd" d="M277.841 124.926L235.525 102.938V91.0518L277.841 113.036V124.926Z" fill="#E6AB28"/>
<path fill-rule="evenodd" clip-rule="evenodd" d="M287.893 107.798L277.841 113.036L235.525 91.0517L245.641 85.8134L287.893 107.798Z" fill="#F9EA7E"/>
<path fill-rule="evenodd" clip-rule="evenodd" d="M287.893 107.798V119.684L277.841 124.926V113.036L287.893 107.798Z" fill="#B736BC"/>
<path fill-rule="evenodd" clip-rule="evenodd" d="M277.841 101.146V113.036L235.525 91.0478V79.162L277.841 101.146Z" fill="#E6AB28"/>
<path fill-rule="evenodd" clip-rule="evenodd" d="M287.893 95.908L277.841 101.146L235.525 79.162L245.641 73.9236L287.893 95.908Z" fill="#F9EA7E"/>
<path fill-rule="evenodd" clip-rule="evenodd" d="M277.841 113.036V101.146L287.893 95.908V107.794L277.841 113.036Z" fill="#5CB7CD"/>
<path fill-rule="evenodd" clip-rule="evenodd" d="M277.841 89.2565V101.142L235.525 79.158V67.2722L277.841 89.2565Z" fill="#E6AB28"/>
<path fill-rule="evenodd" clip-rule="evenodd" d="M287.893 84.0182L277.841 89.2565L235.525 67.2722L245.641 62.0338L287.893 84.0182Z" fill="#F9EA7E"/>
<path fill-rule="evenodd" clip-rule="evenodd" d="M277.841 101.142V89.2565L287.893 84.0182V95.904L277.841 101.142Z" fill="#FFCC00"/>
<path fill-rule="evenodd" clip-rule="evenodd" d="M287.893 72.1284V84.0142L277.841 89.2565V77.3668L287.893 72.1284Z" fill="#DF2B30"/>
<path fill-rule="evenodd" clip-rule="evenodd" d="M287.893 72.1284L277.841 77.3668L235.525 55.3824L245.641 50.1441L287.893 72.1284Z" fill="#E96B79"/>
<path fill-rule="evenodd" clip-rule="evenodd" d="M277.841 89.2565L235.525 67.2722V55.3824L277.841 77.3668V89.2565Z" fill="#E03849"/>
<path fill-rule="evenodd" clip-rule="evenodd" d="M277.853 124.87L267.801 130.109L225.486 108.124L235.601 102.886L277.853 124.87Z" fill="#F9EA7E"/>
<path fill-rule="evenodd" clip-rule="evenodd" d="M267.801 141.998V130.108L277.853 124.87V136.756L267.801 141.998Z" fill="#B355B3"/>
<path fill-rule="evenodd" clip-rule="evenodd" d="M267.801 130.109V141.998L225.486 120.01V108.124L267.801 130.109Z" fill="#673168"/>
<path fill-rule="evenodd" clip-rule="evenodd" d="M267.801 130.108L225.486 108.124V96.2383L267.801 118.223V130.108Z" fill="#E6AB28"/>
<path fill-rule="evenodd" clip-rule="evenodd" d="M277.853 112.98L267.801 118.223L225.486 96.2384L235.601 90.996L277.853 112.98Z" fill="#F9EA7E"/>
<path fill-rule="evenodd" clip-rule="evenodd" d="M277.853 112.98V124.866L267.801 130.109V118.223L277.853 112.98Z" fill="#6AA6BF"/>
<path fill-rule="evenodd" clip-rule="evenodd" d="M267.801 118.286L225.486 96.302V84.4162L267.801 106.401V118.286Z" fill="#E6AB28"/>
<path fill-rule="evenodd" clip-rule="evenodd" d="M277.853 101.162L267.801 106.401L225.486 84.4162L235.601 79.1739L277.853 101.162Z" fill="#F9EA7E"/>
<path fill-rule="evenodd" clip-rule="evenodd" d="M277.853 101.162V113.048L267.801 118.286V106.401L277.853 101.162Z" fill="#FFCC00"/>
<path fill-rule="evenodd" clip-rule="evenodd" d="M267.801 94.5108V106.401L225.486 84.4123V72.5265L267.801 94.5108Z" fill="#E6AB28"/>
<path fill-rule="evenodd" clip-rule="evenodd" d="M267.801 106.401V94.5108L277.853 89.2725V101.158L267.801 106.401Z" fill="#DF2B30"/>
<path fill-rule="evenodd" clip-rule="evenodd" d="M277.853 89.2725L267.801 94.5108L225.486 72.5265L235.601 67.2841L277.853 89.2725Z" fill="#E96B79"/>
<path fill-rule="evenodd" clip-rule="evenodd" d="M267.813 118.235L257.762 123.473L215.446 101.489L225.562 96.2503L267.813 118.235Z" fill="#F9EA7E"/>
<path fill-rule="evenodd" clip-rule="evenodd" d="M267.813 118.235V130.12L257.762 135.359V123.473L267.813 118.235Z" fill="#BC6CBD"/>
<path fill-rule="evenodd" clip-rule="evenodd" d="M257.762 135.359L215.446 113.374V101.489L257.762 123.473V135.359Z" fill="#673168"/>
<path fill-rule="evenodd" clip-rule="evenodd" d="M257.762 111.583V123.473L215.446 101.489V89.5989L257.762 111.583Z" fill="#E6AB28"/>
<path fill-rule="evenodd" clip-rule="evenodd" d="M267.813 106.345L257.762 111.583L215.446 89.5989L225.562 84.3605L267.813 106.345Z" fill="#F9EA7E"/>
<path fill-rule="evenodd" clip-rule="evenodd" d="M257.762 123.473V111.583L267.813 106.345V118.231L257.762 123.473Z" fill="#6AA6BF"/>
<path fill-rule="evenodd" clip-rule="evenodd" d="M257.762 99.6974V111.583L215.446 89.5989V77.7091L257.762 99.6974Z" fill="#E6AB28"/>
<path fill-rule="evenodd" clip-rule="evenodd" d="M267.813 94.4551L257.762 99.6974L215.446 77.7091L225.562 72.4707L267.813 94.4551Z" fill="#F9EA7E"/>
<path fill-rule="evenodd" clip-rule="evenodd" d="M257.762 111.583V99.6974L267.813 94.4551V106.341L257.762 111.583Z" fill="#FFCC00"/>
<path fill-rule="evenodd" clip-rule="evenodd" d="M257.762 99.6934L215.446 77.7091V65.8233L257.762 87.8076V99.6934Z" fill="#E6AB28"/>
<path fill-rule="evenodd" clip-rule="evenodd" d="M267.813 82.5653V94.4511L257.762 99.6934V87.8076L267.813 82.5653Z" fill="#DF2B30"/>
<path fill-rule="evenodd" clip-rule="evenodd" d="M267.813 82.5653L257.762 87.8076L215.446 65.8233L225.562 60.5809L267.813 82.5653Z" fill="#E96B79"/>
<path fill-rule="evenodd" clip-rule="evenodd" d="M247.722 116.837V128.727L205.406 106.739V94.8531L247.722 116.837Z" fill="#E6AB28"/>
<path fill-rule="evenodd" clip-rule="evenodd" d="M257.774 111.599L247.722 116.837L205.406 94.8531L215.522 89.6148L257.774 111.599Z" fill="#F9EA7E"/>
<path fill-rule="evenodd" clip-rule="evenodd" d="M247.722 128.727V116.837L257.774 111.599V123.485L247.722 128.727Z" fill="#B355B3"/>
<path fill-rule="evenodd" clip-rule="evenodd" d="M247.722 116.837L205.406 94.8531V82.9633L247.722 104.948V116.837Z" fill="#E6AB28"/>
<path fill-rule="evenodd" clip-rule="evenodd" d="M257.774 99.7094L247.722 104.948L205.406 82.9634L215.522 77.725L257.774 99.7094Z" fill="#F9EA7E"/>
<path fill-rule="evenodd" clip-rule="evenodd" d="M257.774 99.7094V111.595L247.722 116.837V104.948L257.774 99.7094Z" fill="#74AFB5"/>
<path fill-rule="evenodd" clip-rule="evenodd" d="M247.722 104.948L205.406 82.9634V71.0736L247.722 93.0579V104.948Z" fill="#E6AB28"/>
<path fill-rule="evenodd" clip-rule="evenodd" d="M257.774 87.8196L247.722 93.0579L205.406 71.0736L215.522 65.8352L257.774 87.8196Z" fill="#F9EA7E"/>
<path fill-rule="evenodd" clip-rule="evenodd" d="M257.774 87.8196V99.7054L247.722 104.948V93.0579L257.774 87.8196Z" fill="#FFCC00"/>
<path fill-rule="evenodd" clip-rule="evenodd" d="M247.722 93.0579V81.1681L257.774 75.9298V87.8196L247.722 93.0579Z" fill="#DF2B30"/>
<path fill-rule="evenodd" clip-rule="evenodd" d="M257.774 75.9298L247.722 81.1681L205.406 59.1838L215.522 53.9454L257.774 75.9298Z" fill="#E96B79"/>
<path fill-rule="evenodd" clip-rule="evenodd" d="M247.722 81.1681V93.0579L205.406 71.0736V59.1838L247.722 81.1681Z" fill="#E03849"/>
<path fill-rule="evenodd" clip-rule="evenodd" d="M129.734 87.4812L139.914 82.0916L150.025 87.4812V161.101L139.914 166.494V92.6678L129.734 87.4812Z" fill="#666666"/>
<path fill-rule="evenodd" clip-rule="evenodd" d="M139.914 166.494L129.734 161.101V87.4812L139.914 92.6678V166.494Z" fill="#919191"/>
<path fill-rule="evenodd" clip-rule="evenodd" d="M134.009 163.987V178.555L122.482 172.616V157.952L134.009 163.987Z" fill="#919191"/>
<path fill-rule="evenodd" clip-rule="evenodd" d="M134.009 178.555V163.987L175.933 141.899V156.559L134.009 178.555Z" fill="#666666"/>
<path fill-rule="evenodd" clip-rule="evenodd" d="M134.009 163.987L122.482 157.952L164.407 135.956L175.933 141.899L134.009 163.987Z" fill="#BBBBBB"/>
<path fill-rule="evenodd" clip-rule="evenodd" d="M247.662 128.743L237.611 133.982L195.299 111.997L205.41 106.755L247.662 128.743Z" fill="#F9EA7E"/>
<path fill-rule="evenodd" clip-rule="evenodd" d="M247.662 128.743V140.629L237.611 145.867V133.982L247.662 128.743Z" fill="#B736BC"/>
<path fill-rule="evenodd" clip-rule="evenodd" d="M237.611 145.867L195.299 123.883V111.997L237.611 133.982V145.867Z" fill="#673168"/>
<path fill-rule="evenodd" clip-rule="evenodd" d="M247.662 116.853L237.611 122.092L195.299 100.107L205.41 94.8651L247.662 116.853Z" fill="#F9EA7E"/>
<path fill-rule="evenodd" clip-rule="evenodd" d="M237.611 133.978V122.092L247.662 116.853V128.739L237.611 133.978Z" fill="#74AFB5"/>
<path fill-rule="evenodd" clip-rule="evenodd" d="M237.611 122.092V133.978L195.299 111.993V100.107L237.611 122.092Z" fill="#377BBF"/>
<path fill-rule="evenodd" clip-rule="evenodd" d="M217.878 108.084L229.305 114.027V114.095V132.76L217.743 126.817V122.251V108.152L217.878 108.084Z" fill="#919191"/>
<path fill-rule="evenodd" clip-rule="evenodd" d="M229.305 114.095L236.02 110.501V129.304L229.373 132.827L229.305 132.76V114.095Z" fill="#666666"/>
<path fill-rule="evenodd" clip-rule="evenodd" d="M236.02 110.501L229.305 114.095V114.027L217.878 108.084L224.525 104.558L236.02 110.501Z" fill="#BBBBBB"/>
<path fill-rule="evenodd" clip-rule="evenodd" d="M237.611 122.088L195.299 100.103V88.2176L237.611 110.202V122.088Z" fill="#E6AB28"/>
<path fill-rule="evenodd" clip-rule="evenodd" d="M247.662 104.964L237.611 110.202L195.299 88.2176L205.41 82.9793L247.662 104.964Z" fill="#F9EA7E"/>
<path fill-rule="evenodd" clip-rule="evenodd" d="M247.662 104.964V116.849L237.611 122.088V110.202L247.662 104.964Z" fill="#FFCC00"/>
<path fill-rule="evenodd" clip-rule="evenodd" d="M247.662 93.0739V104.96L237.611 110.202V98.3122L247.662 93.0739Z" fill="#DF2B30"/>
<path fill-rule="evenodd" clip-rule="evenodd" d="M247.662 93.0738L237.611 98.3122L195.299 76.3278L205.41 71.0855L247.662 93.0738Z" fill="#E96B79"/>
<path fill-rule="evenodd" clip-rule="evenodd" d="M237.611 110.202L195.299 88.2137V76.3279L237.611 98.3122V110.202Z" fill="#E03849"/>
<path fill-rule="evenodd" clip-rule="evenodd" d="M207.771 83.3335V94.1884L199.183 89.766V78.8435L207.771 83.3335Z" fill="#919191"/>
<path fill-rule="evenodd" clip-rule="evenodd" d="M207.771 94.1884V83.3335L238.998 66.8861V77.8046L207.771 94.1884Z" fill="#666666"/>
<path fill-rule="evenodd" clip-rule="evenodd" d="M238.998 66.8861L207.771 83.3335L199.183 78.8435L230.41 62.4597L238.998 66.8861Z" fill="#BBBBBB"/>
<path fill-rule="evenodd" clip-rule="evenodd" d="M194.127 132.62V147.209L182.568 141.262V126.606L194.127 132.62Z" fill="#919191"/>
<path fill-rule="evenodd" clip-rule="evenodd" d="M194.127 147.209V132.62L236.02 110.501V125.157L194.127 147.209Z" fill="#666666"/>
<path fill-rule="evenodd" clip-rule="evenodd" d="M236.02 110.501L194.127 132.62L182.568 126.606L224.525 104.558L236.02 110.501Z" fill="#BBBBBB"/>
<path fill-rule="evenodd" clip-rule="evenodd" d="M221.411 127.784L175.918 151.424V146.377V146.341V131.792L166.085 136.907L152.031 144.164V138.635V107.324L192.329 86.3786V105.489L221.339 90.387H221.411V112.781V127.784Z" fill="#666666"/>
<path fill-rule="evenodd" clip-rule="evenodd" d="M152.031 107.324L104.739 82.7126L145.037 61.6995L174.606 77.1478L185.403 71.5154L221.339 90.387L192.329 105.489V86.3786L152.031 107.324Z" fill="#BBBBBB"/>
<path fill-rule="evenodd" clip-rule="evenodd" d="M152.031 144.164L104.739 119.624V114.095V82.7126L152.031 107.324V138.635V144.164Z" fill="#919191"/>
<path fill-rule="evenodd" clip-rule="evenodd" d="M104.739 119.624L152.031 144.164V158.748L104.739 134.212V119.624Z" fill="#D5D5D5"/>
<path fill-rule="evenodd" clip-rule="evenodd" d="M175.921 151.424L221.411 127.784V132.911L175.921 156.539V151.424ZM152.034 158.748V144.164L166.089 136.891L175.921 131.792V146.341L166.089 151.456L152.034 158.748Z" fill="#999999"/>
<path fill-rule="evenodd" clip-rule="evenodd" d="M117.821 59.2037L127.007 55.2112L136.126 68.6853V88.3331L117.821 78.8515V59.2037Z" fill="#919191"/>
<path fill-rule="evenodd" clip-rule="evenodd" d="M127.007 55.2112L136.19 50.4386L145.248 63.8848V63.9445L136.126 68.6853L127.007 55.2112Z" fill="#BBBBBB"/>
<path fill-rule="evenodd" clip-rule="evenodd" d="M136.13 68.6853L145.252 63.9445V83.656L136.13 88.3291V68.6853ZM136.194 50.4386L127.023 55.2152L117.853 59.1957L127.099 54.3913L136.194 50.4386Z" fill="#666666"/>
<path fill-rule="evenodd" clip-rule="evenodd" d="M114.157 124.81L117.932 126.781L121.565 133.106L126.828 131.446L128.973 132.553V142.85L125.237 140.916V146.862L121.565 144.924L117.829 142.989V137.047L114.157 135.108V124.81Z" fill="#919191"/>
<path fill-rule="evenodd" clip-rule="evenodd" d="M125.237 146.862V140.916L128.973 142.85V132.553L135.344 129.304V139.534L131.604 141.469V143.543L128.973 144.924L125.305 146.862H125.237Z" fill="#666666"/>
<path fill-rule="evenodd" clip-rule="evenodd" d="M117.932 126.781L114.157 124.81L120.528 121.562L135.344 129.304L128.973 132.553L126.828 131.446L117.932 126.781Z" fill="#BBBBBB"/>
<path fill-rule="evenodd" clip-rule="evenodd" d="M126.828 131.446L121.565 133.106L117.932 126.781L126.828 131.446Z" fill="#D67E7E"/>
<path fill-rule="evenodd" clip-rule="evenodd" d="M141.433 71.2328L150.615 67.2403L159.738 80.7144V100.362L141.433 90.8806V71.2328Z" fill="#919191"/>
<path fill-rule="evenodd" clip-rule="evenodd" d="M150.615 67.2403L159.801 62.4677L168.86 75.9099V75.9736L159.738 80.7144L150.615 67.2403Z" fill="#BBBBBB"/>
<path fill-rule="evenodd" clip-rule="evenodd" d="M159.738 80.7144L168.86 75.9895V95.697L159.738 100.378V80.7144ZM159.801 62.4677L150.631 67.2443L141.461 71.2248L150.679 66.4363L159.801 62.4677Z" fill="#666666"/>
<path fill-rule="evenodd" clip-rule="evenodd" d="M116.334 99.6735L103.024 92.7475L109.775 89.2884L122.96 96.2105L116.334 99.6735Z" fill="#BBBBBB"/>
<path fill-rule="evenodd" clip-rule="evenodd" d="M116.334 99.6735L122.96 96.2105V111.91L116.334 115.309V99.6735Z" fill="#666666"/>
<path fill-rule="evenodd" clip-rule="evenodd" d="M103.024 92.7474L116.334 99.6735V115.309L103.024 108.387V92.7474Z" fill="#919191"/>
<path fill-rule="evenodd" clip-rule="evenodd" d="M107.016 105.616V98.6943L112.96 101.783V108.709L107.016 105.616Z" fill="black"/>
<path fill-rule="evenodd" clip-rule="evenodd" d="M139.256 111.977L125.943 105.055L132.693 101.592L145.878 108.514L139.256 111.977Z" fill="#BBBBBB"/>
<path fill-rule="evenodd" clip-rule="evenodd" d="M145.878 108.514V124.213L139.256 127.613V111.977L145.878 108.514Z" fill="#666666"/>
<path fill-rule="evenodd" clip-rule="evenodd" d="M139.256 127.613L125.943 120.691V105.055L139.256 111.977V127.613Z" fill="#919191"/>
<path fill-rule="evenodd" clip-rule="evenodd" d="M129.938 117.92V110.998L135.883 114.091V121.009L129.938 117.92Z" fill="black"/>
<path fill-rule="evenodd" clip-rule="evenodd" d="M129.391 163.66V181.007L117.829 175.064V157.646L129.391 163.66Z" fill="#919191"/>
<path fill-rule="evenodd" clip-rule="evenodd" d="M129.391 181.007V163.66L134.029 161.24V178.587L129.391 181.007Z" fill="#666666"/>
<path fill-rule="evenodd" clip-rule="evenodd" d="M129.391 163.66L117.829 157.646L122.534 155.226L134.029 161.168V161.24L129.391 163.66Z" fill="#BBBBBB"/>
<defs>
<linearGradient id="paint0_linear" x1="0" y1="0" x2="390" y2="240" gradientUnits="userSpaceOnUse">
<stop stop-color="#FF92ED"/>
<stop offset="1" stop-color="#1BB1D1"/>
</linearGradient>
</defs>
</svg>
