<svg width="59" height="91" viewBox="0 0 59 91" fill="none" xmlns="http://www.w3.org/2000/svg">
<path d="M57.3749 56.8897C56.2886 55.1196 54.6189 53.7838 52.6535 53.1126C53.6827 49.6565 52.5685 44.9539 43.2106 40.4969C37.7456 37.9306 31.6702 36.9492 25.6752 37.664L35.2975 10.4875C35.9666 8.53702 35.8341 6.40075 34.9292 4.5479C34.3703 3.54951 33.6057 2.6813 32.6859 2.00081C31.7661 1.32032 30.7122 0.843091 29.594 0.600775L28.8102 0.383593C24.0888 -0.938409 19.4429 1.25233 17.9415 5.48274L17.8942 5.61495C13.0028 4.98228 8.77244 7.83403 8.06422 12.225L7.72428 14.2835C5.06139 14.2835 0.0472172 15.7471 0.0472172 21.2335L0 63.7264C0 78.2117 13.22 90.0059 29.3957 90.0059C30.6355 90.0028 31.8743 89.9335 33.1067 89.7981C42.2285 88.7594 50.3966 83.8586 54.967 76.6726C57.2475 73.1029 58.5501 68.9966 58.7441 64.7651C58.8291 62.14 58.763 59.1938 57.3749 56.8897ZM30.8404 9.05216L18.5647 43.6319L22.7668 42.6027C27.4564 41.4321 32.3745 41.543 37.0066 42.9237C39.3364 43.619 41.5603 44.6293 43.6166 45.9266L43.9943 46.1626C45.5807 47.1069 47.7715 48.4856 48.1303 50.1758C48.4891 51.8661 47.3749 53.1881 46.3173 53.953C45.6335 54.42 44.846 54.7132 44.0232 54.807C43.2005 54.9008 42.3672 54.7924 41.5958 54.4912C41.0209 54.2407 40.4938 53.8925 40.0378 53.462C39.83 53.2826 39.6223 53.1126 39.3957 52.9426C38.3956 52.1856 37.3081 51.5516 36.1568 51.054C33.7183 49.9963 31.0679 49.518 28.4136 49.6565C26.1586 49.7672 23.951 50.3447 21.9307 51.3525C19.9103 52.3602 18.1211 53.7763 16.6761 55.5111C15.2975 57.2021 14.3693 59.2146 13.9779 61.361C13.5866 63.5075 13.745 65.718 14.4382 67.7868C15.2068 69.8473 16.4215 71.7123 17.9952 73.2485C19.5689 74.7846 21.4627 75.9539 23.5411 76.6726C25.9194 77.4939 28.4459 77.7967 30.9509 77.5605C33.4559 77.3243 35.8813 76.5547 38.0642 75.3033C39.8352 74.3202 41.364 72.9535 42.5387 71.3034C43.7134 69.6532 44.5044 67.7613 44.8536 65.766C45.0326 64.4722 45.0326 63.1599 44.8536 61.8661C44.7482 61.1082 44.8698 60.3359 45.203 59.647C45.5695 59.0461 46.0566 58.5278 46.6336 58.1247C47.2106 57.7216 47.8649 57.4426 48.5552 57.3052C49.2613 57.0948 50.0084 57.0623 50.73 57.2105C51.4516 57.3588 52.1254 57.6833 52.6912 58.1551C54.1549 59.5621 54.0888 62.4232 54.0416 64.1324C53.8621 71.7717 49.0746 78.8727 41.5581 82.6782C37.6948 84.5987 33.4324 85.5792 29.1183 85.5398C24.8041 85.5004 20.5604 84.4423 16.7328 82.4516C9.29179 78.5045 4.67422 71.309 4.67422 63.6603V21.1673C4.67422 18.8916 6.77055 18.6272 7.66762 18.6083H8.90463C9.07446 18.5983 9.24472 18.5983 9.41454 18.6083L11.6525 18.8255L12.5968 12.7821C12.9839 10.4214 15.2219 9.60928 17.1294 9.84535L17.9698 9.95866C18.246 9.9953 18.5202 10.0457 18.7913 10.1098L20.9443 10.6669L22.3324 6.75753C23.1823 4.36848 25.5902 4.03799 27.3749 4.47236L28.1681 4.69899C28.6704 4.79639 29.1471 4.99687 29.5681 5.2878C29.989 5.57873 30.3451 5.95377 30.6138 6.38926C31.0303 7.21432 31.1116 8.16856 30.8404 9.05216ZM40.17 62.5649C40.2922 63.6646 40.2412 64.7766 40.0189 65.8605C39.5314 67.6149 38.5675 69.2001 37.2341 70.4402C35.9006 71.6803 34.2498 72.5268 32.4646 72.886C30.4132 73.4265 28.255 73.4123 26.2109 72.8449C24.1668 72.2775 22.3102 71.1771 20.831 69.6565C19.5817 68.3086 18.7832 66.6051 18.5463 64.7826C18.3094 62.9601 18.6458 61.109 19.509 59.4865C20.5273 57.7932 21.9738 56.398 23.7028 55.4415C25.4318 54.485 27.3823 54.0009 29.3579 54.038C31.465 54.0252 33.5376 54.5727 35.3635 55.6244C35.9865 56.0041 36.5885 56.4171 37.1671 56.8614C38.1341 57.637 39.2054 58.2728 40.3494 58.75C40.0783 60.0026 40.0113 61.2909 40.1511 62.5649H40.17Z" fill="black"/>
</svg>
