<svg width="90" height="55" viewBox="0 0 90 55" fill="none" xmlns="http://www.w3.org/2000/svg">
<path d="M44.4944 14.7303C44.4866 14.0583 44.2313 13.4161 43.7829 12.941C43.3345 12.4658 42.7287 12.1952 42.0947 12.1869H12.0985C11.462 12.1869 10.8517 12.4549 10.4016 12.9318C9.9516 13.4088 9.69878 14.0557 9.69878 14.7303C9.69878 15.4048 9.9516 16.0517 10.4016 16.5287C10.8517 17.0056 11.462 17.2736 12.0985 17.2736H42.0947C42.4109 17.2779 42.7248 17.215 43.0177 17.0887C43.3107 16.9624 43.5769 16.7752 43.8005 16.5382C44.0242 16.3011 44.2007 16.0191 44.3199 15.7086C44.4391 15.3981 44.4984 15.0654 44.4944 14.7303Z" fill="black"/>
<path d="M40.5949 26.9171C40.5871 26.2452 40.3317 25.603 39.8834 25.1278C39.435 24.6526 38.8292 24.382 38.1952 24.3738H22.3972C21.7607 24.3738 21.1504 24.6418 20.7003 25.1187C20.2503 25.5957 19.9975 26.2426 19.9975 26.9171C19.9975 27.5917 20.2503 28.2386 20.7003 28.7156C21.1504 29.1925 21.7607 29.4605 22.3972 29.4605H38.1952C38.5114 29.4648 38.8253 29.4019 39.1182 29.2756C39.4112 29.1493 39.6773 28.9621 39.901 28.7251C40.1246 28.488 40.3012 28.206 40.4204 27.8955C40.5396 27.585 40.5989 27.2523 40.5949 26.9171Z" fill="black"/>
<path d="M64.0919 0H2.39969C1.76325 0 1.15288 0.267958 0.702853 0.744929C0.252823 1.2219 0 1.86881 0 2.54335C0 3.21789 0.252823 3.86479 0.702853 4.34176C1.15288 4.81873 1.76325 5.08669 2.39969 5.08669H64.1919C67.9302 5.10319 71.5972 6.17216 74.8176 8.18417C78.038 10.1962 80.6962 13.079 82.5201 16.5376C84.3439 19.9961 85.268 23.9062 85.1976 27.8676C85.1273 31.829 84.065 35.6994 82.1197 39.0828C80.1743 42.4661 77.4157 45.2409 74.1261 47.1231C70.8365 49.0052 67.1342 49.9272 63.3979 49.7946C59.6617 49.662 56.0258 48.4796 52.8624 46.3684C49.699 44.2572 47.1217 41.2931 45.3943 37.7794C45.2012 37.3643 44.902 37.015 44.5308 36.7714C44.1595 36.5278 43.7312 36.3997 43.2945 36.4017H30.9961C30.3596 36.4017 29.7493 36.6697 29.2992 37.1467C28.8492 37.6236 28.5964 38.2705 28.5964 38.9451C28.5964 39.6196 28.8492 40.2665 29.2992 40.7435C29.7493 41.2205 30.3596 41.4884 30.9961 41.4884H41.7947C44.1039 45.6265 47.3978 49.0494 51.3469 51.4149C55.2959 53.7803 59.7618 55.0053 64.2977 54.9674C68.8337 54.9294 73.2807 53.6298 77.1941 51.1986C81.1075 48.7674 84.35 45.2899 86.5972 41.1137C88.8445 36.9375 90.0178 32.2091 89.9998 27.4015C89.9818 22.5939 88.773 17.8756 86.4945 13.7184C84.216 9.56132 80.9476 6.11111 77.0161 3.71295C73.0847 1.31479 68.628 0.0527156 64.0919 0.0529736V0Z" fill="black"/>
<path d="M64.0919 9.53757C63.4064 9.55115 62.7526 9.84579 62.2678 10.3596C61.783 10.8734 61.505 11.5664 61.4922 12.2929V27.9769V28.5067C61.4922 28.7187 61.5922 28.8247 61.5922 29.0366C61.6922 29.1426 61.6922 29.3545 61.7922 29.4605C61.8922 29.5665 61.9921 29.7784 62.0921 29.8844L68.6913 36.8786C69.1685 37.3922 69.8116 37.6951 70.4911 37.7264C70.8296 37.7216 71.1637 37.644 71.4731 37.4983C71.7824 37.3525 72.0607 37.1417 72.2909 36.8786C72.771 36.3528 73.0394 35.6498 73.0394 34.9181C73.0394 34.1864 72.771 33.4834 72.2909 32.9576L66.3916 26.7052V12.3458C66.4641 11.9931 66.4579 11.6273 66.3735 11.2775C66.2892 10.9277 66.129 10.6036 65.9057 10.3309C65.6824 10.0583 65.4022 9.8446 65.0873 9.70687C64.7725 9.56914 64.4316 9.51117 64.0919 9.53757Z" fill="black"/>
</svg>
