<svg width="90" height="90" viewBox="0 0 90 90" fill="none" xmlns="http://www.w3.org/2000/svg">
<g clip-path="url(#clip0)">
<path fill-rule="evenodd" clip-rule="evenodd" d="M85.8743 66.6306C86.7086 65.8057 86.7086 64.4659 85.8743 63.6411C85.0431 62.8193 83.6978 62.8193 82.8666 63.6411L76.1296 70.3019L76.1296 49.6111C76.1296 48.4398 75.1707 47.5 74 47.5C72.8293 47.5 71.8704 48.4398 71.8704 49.6111L71.8704 70.3019L65.1334 63.6411C64.3022 62.8193 62.9569 62.8193 62.1258 63.6411C61.2914 64.4659 61.2914 65.8057 62.1258 66.6306L72.4962 76.8837C73.3274 77.7054 74.6726 77.7054 75.5038 76.8837L85.8743 66.6306Z" fill="black"/>
<path d="M39.2121 28.6761C40.0262 25.6636 39.9287 22.4774 38.932 19.5203C37.9353 16.5632 36.084 13.9681 33.6124 12.0632C31.1408 10.1582 28.1598 9.02892 25.0464 8.81816C21.933 8.60739 18.8269 9.32459 16.1211 10.8791C13.4153 12.4335 11.2312 14.7555 9.84505 17.5513C8.45887 20.347 7.93286 23.4911 8.33355 26.5858C8.73423 29.6805 10.0436 32.5869 12.0961 34.9375C14.1486 37.288 16.852 38.9771 19.8645 39.7913C23.9039 40.878 28.2095 40.3181 31.8367 38.2343C35.4638 36.1506 38.1162 32.7131 39.2121 28.6761ZM26.8215 14.0481C28.9005 14.61 30.7663 15.7757 32.1828 17.3979C33.5993 19.0201 34.5029 21.0259 34.7795 23.1617C35.056 25.2975 34.693 27.4674 33.7363 29.3968C32.7797 31.3263 31.2723 32.9288 29.405 34.0016C27.5376 35.0744 25.394 35.5694 23.2453 35.4239C21.0966 35.2784 19.0393 34.4991 17.3335 33.1844C15.6277 31.8697 14.3501 30.0787 13.6622 28.0379C12.9744 25.9971 12.9071 23.7981 13.4689 21.7191C14.2244 18.9325 16.0549 16.5596 18.5583 15.1214C21.0618 13.6832 24.0337 13.2971 26.8215 14.0481Z" fill="black"/>
<path d="M48.1355 44.2087C45.123 43.3946 41.9368 43.4921 38.9797 44.4888C36.0226 45.4855 33.4275 47.3368 31.5225 49.8084C29.6176 52.28 28.4883 55.261 28.2775 58.3744C28.0668 61.4879 28.784 64.5939 30.3384 67.2997C31.8929 70.0055 34.2149 72.1896 37.0107 73.5758C39.8064 74.9619 42.9504 75.4879 46.0452 75.0872C49.1399 74.6866 52.0463 73.3772 54.3969 71.3247C56.7474 69.2722 58.4365 66.5688 59.2506 63.5563C60.3374 59.5169 59.7775 55.2113 57.6937 51.5842C55.61 47.957 52.1725 45.3046 48.1355 44.2087ZM41.1785 69.9519C39.0995 69.39 37.2337 68.2243 35.8172 66.6021C34.4007 64.9799 33.4971 62.974 33.2205 60.8382C32.944 58.7025 33.307 56.5326 34.2637 54.6032C35.2203 52.6737 36.7277 51.0712 38.5951 49.9984C40.4624 48.9256 42.606 48.4306 44.7547 48.5761C46.9034 48.7215 48.9608 49.5009 50.6665 50.8156C52.3723 52.1303 53.6499 53.9213 54.3378 55.9621C55.0257 58.0029 55.0929 60.2018 54.5311 62.2809C53.7756 65.0674 51.9451 67.4404 49.4417 68.8786C46.9382 70.3168 43.9663 70.7028 41.1785 69.9519Z" fill="black"/>
<path d="M58.8582 19.8976C58.4257 19.4143 57.8217 19.1189 57.1747 19.0743C56.8537 19.0559 56.5322 19.1009 56.2286 19.2069C55.9251 19.3129 55.6454 19.4777 55.4056 19.6919L9.34741 60.6499C9.0115 60.94 8.76093 61.3162 8.62261 61.738C8.48429 62.1598 8.46344 62.6113 8.56228 63.044C8.66113 63.4768 8.87595 63.8744 9.18369 64.1943C9.49142 64.5142 9.88046 64.7443 10.309 64.8598C10.6952 64.9637 11.1009 64.9715 11.4908 64.8827C11.8807 64.7939 12.243 64.6111 12.5461 64.3503L58.6183 23.3409C59.1058 22.9155 59.4048 22.3143 59.4498 21.6688C59.4948 21.0234 59.2821 20.3864 58.8582 19.8976Z" fill="black"/>
</g>
<defs>
<clipPath id="clip0">
<rect width="90" height="90" fill="white"/>
</clipPath>
</defs>
</svg>
