<svg width="65" height="60" viewBox="0 0 65 60" fill="none" xmlns="http://www.w3.org/2000/svg">
<path d="M53.3301 38.3534C51.5902 38.3586 49.8769 38.7782 48.3338 39.5769C46.7906 40.3757 45.4625 41.5304 44.4606 42.9444L26.2393 32.0642C26.4791 30.6931 26.4791 29.2912 26.2393 27.9201L44.4606 17.0481C45.9645 19.1418 48.1719 20.6322 50.6844 21.2499C53.1969 21.8676 55.8487 21.5721 58.1612 20.4167C60.4736 19.2612 62.2943 17.322 63.2943 14.9492C64.2944 12.5763 64.4081 9.92628 63.6147 7.47747C62.8213 5.02866 61.1733 2.94251 58.9681 1.59568C56.7629 0.248859 54.146 -0.269866 51.5898 0.133159C49.0336 0.536184 46.7065 1.83439 45.0289 3.7934C43.3512 5.7524 42.4335 8.2431 42.4415 10.8157C42.4454 11.4175 42.4973 12.0179 42.5968 12.6115L24.6126 23.3616C23.1475 20.8722 20.8985 18.9315 18.2131 17.8392C15.5277 16.747 12.5552 16.5639 9.75464 17.3184C6.95413 18.0728 4.4814 19.7228 2.71835 22.0134C0.955299 24.3041 0 27.108 0 29.9921C0 32.8763 0.955299 35.6802 2.71835 37.9709C4.4814 40.2615 6.95413 41.9115 9.75464 42.6659C12.5552 43.4203 15.5277 43.2373 18.2131 42.1451C20.8985 41.0528 23.1475 39.1121 24.6126 36.6226L42.5968 47.3728C42.4911 47.9684 42.4364 48.5719 42.4333 49.1767C42.4333 51.3173 43.0719 53.4099 44.2684 55.1898C45.4648 56.9697 47.1654 58.3569 49.155 59.1761C51.1446 59.9953 53.334 60.2097 55.4462 59.792C57.5584 59.3744 59.4985 58.3436 61.0213 56.8299C62.5441 55.3163 63.5812 53.3877 64.0013 51.2882C64.4214 49.1887 64.2058 47.0125 63.3817 45.0348C62.5575 43.0571 61.1619 41.3667 59.3713 40.1774C57.5807 38.9882 55.4755 38.3534 53.3219 38.3534H53.3301ZM59.4365 49.1767C59.3787 50.747 58.7105 52.2338 57.5724 53.3245C56.4343 54.4151 54.915 55.0245 53.3342 55.0245C51.7533 55.0245 50.2341 54.4151 49.096 53.3245C47.9579 52.2338 47.2896 50.747 47.2318 49.1767C47.234 47.569 47.8769 46.0275 49.0198 44.8899C50.1628 43.7523 51.7126 43.1112 53.3301 43.1069C54.1344 43.0982 54.9324 43.2492 55.6772 43.5512C56.4221 43.8531 57.0987 44.2999 57.6675 44.8653C58.2363 45.4307 58.6858 46.1033 58.9895 46.8436C59.2933 47.584 59.4453 48.3772 59.4365 49.1767ZM47.2318 10.8157C47.234 9.20874 47.8772 7.66817 49.0203 6.53185C50.1635 5.39552 51.7134 4.75617 53.3301 4.75402C54.1502 4.72418 54.968 4.85899 55.7346 5.15039C56.5012 5.44178 57.2008 5.88379 57.7917 6.44999C58.3825 7.01619 58.8525 7.69498 59.1735 8.44578C59.4945 9.19659 59.6599 10.004 59.6599 10.8198C59.6599 11.6356 59.4945 12.443 59.1735 13.1938C58.8525 13.9446 58.3825 14.6234 57.7917 15.1896C57.2008 15.7558 56.5012 16.1978 55.7346 16.4892C54.968 16.7806 54.1502 16.9154 53.3301 16.8856C51.7126 16.8813 50.1628 16.2401 49.0198 15.1025C47.8769 13.9649 47.234 12.4235 47.2318 10.8157ZM21.6697 29.9921C21.673 31.6501 21.1812 33.2717 20.2567 34.6517C19.3322 36.0317 18.0166 37.108 16.4764 37.7443C14.9362 38.3806 13.2407 38.5484 11.6045 38.2263C9.96829 37.9042 8.46504 37.1068 7.28505 35.9351C6.10506 34.7633 5.30138 33.2698 4.97578 31.6438C4.65018 30.0177 4.81729 28.3322 5.45596 26.8006C6.09463 25.269 7.17613 23.9602 8.56355 23.04C9.95096 22.1197 11.5819 21.6293 13.2498 21.6309C15.4809 21.6331 17.62 22.5144 19.1983 24.0817C20.7766 25.6491 21.6654 27.7745 21.6697 29.9921Z" fill="black"/>
</svg>
