<svg width="390" height="240" viewBox="0 0 390 240" fill="none" xmlns="http://www.w3.org/2000/svg">
<path d="M0 10C0 4.47716 4.47715 0 10 0H380C385.523 0 390 4.47715 390 10V240H0V10Z" fill="url(#paint0_linear)"/>
<path fill-rule="evenodd" clip-rule="evenodd" d="M195.887 166.244L141.154 194.848L195.2 223.04L250 194.502L195.887 166.244Z" fill="#E88C02"/>
<path fill-rule="evenodd" clip-rule="evenodd" d="M221.459 143.679L208.417 136.877V144.675L221.459 151.477V143.679Z" fill="#E6AB28"/>
<path fill-rule="evenodd" clip-rule="evenodd" d="M234.501 136.877L221.459 143.679V151.477L234.501 144.675V136.877Z" fill="#E9D21B"/>
<path fill-rule="evenodd" clip-rule="evenodd" d="M221.459 105.051L208.417 98.2488V136.877L221.459 143.679V105.051Z" fill="#E76652"/>
<path fill-rule="evenodd" clip-rule="evenodd" d="M208.417 98.2488L221.459 105.051L234.501 98.2488L221.459 91.4471L208.417 98.2488Z" fill="#EB7D72"/>
<path fill-rule="evenodd" clip-rule="evenodd" d="M234.501 98.2488L221.459 105.051V143.679L234.501 136.877V98.2488Z" fill="#CCBAB3"/>
<path fill-rule="evenodd" clip-rule="evenodd" d="M201.99 179.122L212.1 184.363V143.181L186.889 130.012L181.834 132.696L176.779 135.316L201.99 148.485V179.122ZM161.552 184.363L186.826 197.468V156.346L161.615 143.241H161.552V184.363Z" fill="#408D95"/>
<path fill-rule="evenodd" clip-rule="evenodd" d="M186.889 130.013L212.1 143.181V184.363L217.155 181.68L227.328 176.376V135.253L202.117 122.088L191.944 127.392L186.889 130.013ZM161.615 143.241L186.826 156.346V197.472L193.568 193.975L196.935 192.228L201.99 189.626V148.485L176.779 135.301L171.724 137.903L161.615 143.241Z" fill="#2E666B"/>
<path fill-rule="evenodd" clip-rule="evenodd" d="M212.1 198.595L217.155 195.993L227.328 190.682V176.379L217.155 181.683L212.1 184.367V198.595ZM186.826 197.48V211.767L196.935 206.526L201.99 203.906V189.607L196.935 192.209L193.568 193.956L186.826 197.48Z" fill="#3C3C3C"/>
<path fill-rule="evenodd" clip-rule="evenodd" d="M201.99 189.607V193.35L212.1 198.595V184.363L201.99 179.119V189.607ZM186.826 197.472L161.552 184.367V198.658L186.826 211.76V197.472Z" fill="#595959"/>
<path fill-rule="evenodd" clip-rule="evenodd" d="M161.615 114.974L186.826 128.076L227.328 106.987L202.113 93.8184L161.615 114.974Z" fill="#F9EA7E"/>
<path fill-rule="evenodd" clip-rule="evenodd" d="M227.328 106.987L186.826 128.076V164.211V183.493L227.328 162.401V143.118V106.987Z" fill="#DACCC7"/>
<path fill-rule="evenodd" clip-rule="evenodd" d="M186.826 128.076L161.615 114.974H161.552V151.105V170.388L186.826 183.493V164.211V128.076Z" fill="white"/>
<path fill-rule="evenodd" clip-rule="evenodd" d="M168.48 169.013L155.437 162.211V170.013L168.48 176.814V169.013Z" fill="#E6AB28"/>
<path fill-rule="evenodd" clip-rule="evenodd" d="M181.522 162.211L168.48 169.013V176.814L181.522 170.013V162.211Z" fill="#E9D21B"/>
<path fill-rule="evenodd" clip-rule="evenodd" d="M168.48 169.013L181.522 162.211V123.586L168.48 130.388V169.013Z" fill="#DACCC7"/>
<path fill-rule="evenodd" clip-rule="evenodd" d="M168.48 169.013V130.388L181.522 123.586L168.48 116.781L155.437 123.586V162.211L168.48 169.013Z" fill="white"/>
<path fill-rule="evenodd" clip-rule="evenodd" d="M186.826 76.4684V128.076L234.003 103.489V51.8819L186.826 76.4684Z" fill="#E6AB28"/>
<path fill-rule="evenodd" clip-rule="evenodd" d="M186.826 128.076V76.4684L166.67 65.9871L146.513 91.882V107.11L186.826 128.076Z" fill="#E9D21B"/>
<path fill-rule="evenodd" clip-rule="evenodd" d="M146.513 91.882L166.67 65.9871L186.826 76.4684L234.003 51.8819V37.0296L193.754 16L146.513 40.6497V55.502V91.882Z" fill="#342018"/>
<path fill-rule="evenodd" clip-rule="evenodd" d="M223.176 70.1276L242.407 60.1071L232.657 55.0969L213.605 65.1174L223.176 70.1276Z" fill="#E88F51"/>
<path fill-rule="evenodd" clip-rule="evenodd" d="M213.605 65.1174V87.8381L223.176 92.7554V70.1276L213.605 65.1174Z" fill="#773911"/>
<path fill-rule="evenodd" clip-rule="evenodd" d="M242.407 60.1071L223.176 70.1276V92.7554L242.407 82.7387V60.1071Z" fill="#C9611D"/>
<path fill-rule="evenodd" clip-rule="evenodd" d="M225.495 88.5777L239.626 81.2185V64.7308L225.495 72.0938V88.5777Z" fill="white"/>
<path fill-rule="evenodd" clip-rule="evenodd" d="M196.527 84.6677L215.761 74.6472L206.008 69.637L186.956 79.6574L196.527 84.6677Z" fill="#E88F51"/>
<path fill-rule="evenodd" clip-rule="evenodd" d="M196.527 84.6677L186.956 79.6574V102.378L196.527 107.295V84.6677Z" fill="#773911"/>
<path fill-rule="evenodd" clip-rule="evenodd" d="M196.527 107.295L215.761 97.2787V74.6472L196.527 84.6677V107.295Z" fill="#C9611D"/>
<path fill-rule="evenodd" clip-rule="evenodd" d="M198.976 102.43L213.107 95.071V78.587L198.976 85.9462V102.43Z" fill="white"/>
<path fill-rule="evenodd" clip-rule="evenodd" d="M191.133 87.2657L172.349 77.4682V80.8394L181.585 85.6415L191.133 90.5736V87.2657Z" fill="#E88F51"/>
<path fill-rule="evenodd" clip-rule="evenodd" d="M190.383 87.8269L171.598 78.0295V81.4006L180.834 86.2027L190.383 91.1349V87.8269Z" fill="#773911"/>
<path fill-rule="evenodd" clip-rule="evenodd" d="M196.341 112.596L192.813 110.756L192.799 112.778L196.341 114.618L200.002 116.509V114.521L196.341 112.61V112.596Z" fill="#773911"/>
<defs>
<linearGradient id="paint0_linear" x1="0" y1="0" x2="390" y2="240" gradientUnits="userSpaceOnUse">
<stop stop-color="#FBFF46"/>
<stop offset="1" stop-color="#FF7940"/>
</linearGradient>
</defs>
</svg>
