<svg width="390" height="240" viewBox="0 0 390 240" fill="none" xmlns="http://www.w3.org/2000/svg">
<path d="M0 10C0 4.47716 4.47715 0 10 0H380C385.523 0 390 4.47715 390 10V240H0V10Z" fill="url(#paint0_linear)"/>
<g clip-path="url(#clip0)">
<g style="mix-blend-mode:multiply" opacity="0.7">
<g style="mix-blend-mode:multiply" opacity="0.7">
<path d="M274.282 188.261C260.876 195.981 257.699 200.968 263.004 203.954C271.486 208.847 293.883 202.43 307.13 194.773C339.215 176.221 335.181 155.159 306.24 138.449C287.408 127.613 266.075 121.876 244.348 121.804C222.62 121.732 201.25 127.326 182.345 138.036C155.533 153.507 143.874 173.902 179.327 194.36C192.414 201.129 206.197 206.455 220.435 210.244L209.856 223.873C191.901 220.001 174.556 213.706 158.297 205.162C125.481 186.101 107.309 157.192 160.775 126.314C214.24 95.435 281.493 101.153 328.192 128.061C366.155 149.949 372.667 181.209 329.272 206.273C301.38 222.38 262.4 226.764 242.641 215.359C230.823 208.529 225.327 200.079 233.651 189.563C217.036 194.075 204.17 193.153 192.352 186.387C170.655 173.68 176.818 158.685 201.533 144.421C227.106 129.649 262.21 128.728 286.925 142.992C300.681 150.934 314.087 163.959 315.326 164.689L274.282 188.261ZM253.823 169.709L272.884 158.717C271.235 156.832 269.332 155.185 267.229 153.825C257.349 148.106 244.483 151.696 231.236 159.32C218.72 166.564 208.3 173.394 215.733 177.651C222.595 181.621 239.877 177.682 253.823 169.709Z" fill="#BFBFBF"/>
</g>
</g>
<path d="M179.836 179.429C177.675 178.191 175.642 176.888 173.641 175.554L172.974 175.109C171.099 173.838 169.289 172.504 167.573 171.17L166.715 170.503C165.064 169.168 163.539 167.771 161.919 166.373L161.124 165.642C159.599 164.213 158.106 162.751 156.74 161.258C156.523 161.062 156.321 160.85 156.137 160.623C155.152 159.574 154.262 158.494 153.341 157.446C152.42 156.398 151.785 155.54 151.054 154.587C150.323 153.634 149.211 152.204 148.385 150.997L147.814 150.203C146.702 148.583 145.685 147.026 144.637 145.311L143.938 144.103C143.112 142.61 142.286 141.117 141.523 139.624L141.142 138.894C140.316 137.178 139.522 135.463 138.791 133.715L138.283 132.445C137.648 130.888 137.044 129.268 136.504 127.711C136.504 127.489 136.345 127.266 136.282 127.076C135.678 125.297 135.138 123.518 134.63 121.739C134.63 121.294 134.407 120.849 134.28 120.436C133.836 118.753 133.454 117.26 133.073 115.417V114.941C132.692 113.13 132.374 111.319 132.088 109.54L131.898 108.206C131.644 106.458 131.421 104.711 131.231 102.996C131.246 102.901 131.246 102.805 131.231 102.71C131.231 100.899 130.945 99.0883 130.849 97.3093C130.849 96.8645 130.849 96.4198 130.849 95.975C130.849 94.1643 130.849 92.3853 130.849 90.6062C130.849 67.2568 137.394 53.2789 147.972 47.1477L135.265 54.5179C124.686 60.6491 118.206 74.627 118.142 97.9447C118.142 99.7554 118.142 101.534 118.142 103.345C118.142 103.79 118.142 104.235 118.142 104.679C118.142 106.458 118.365 108.269 118.555 110.08C118.54 110.175 118.54 110.271 118.555 110.366C118.714 112.081 118.936 113.829 119.191 115.544L119.381 116.878C119.667 118.689 119.985 120.5 120.366 122.311V122.787C120.747 124.471 121.128 126.123 121.573 127.775C121.573 128.22 121.827 128.664 121.923 129.109C122.431 130.888 122.971 132.667 123.575 134.414C123.575 134.637 123.575 134.859 123.797 135.05C124.337 136.67 124.941 138.226 125.576 139.815C125.767 140.26 125.925 140.673 126.084 141.086C126.815 142.833 127.609 144.548 128.435 146.264L128.816 146.963C129.579 148.487 130.405 150.139 131.231 151.474C131.485 151.855 131.707 152.268 131.93 152.649C132.914 154.301 133.931 155.826 135.106 157.573L135.678 158.367L137.425 160.845C137.711 161.226 138.061 161.576 138.347 161.957C139.077 162.91 139.84 163.863 140.634 164.784C141.428 165.706 141.428 165.833 141.873 166.309L143.43 168.025C143.614 168.252 143.816 168.464 144.033 168.66C145.399 170.153 146.892 171.615 148.417 173.044L149.211 173.775C150.736 175.173 152.388 176.539 154.008 177.905L154.866 178.54C156.613 179.906 158.392 181.24 160.267 182.511L160.934 182.956C162.935 184.29 164.968 185.592 167.287 186.831C176.981 192.14 187.361 196.084 198.134 198.554C200.517 199.094 202.327 199.411 203.249 199.539L215.956 192.168C203.299 189.931 191.096 185.627 179.836 179.429Z" fill="#C74536"/>
<path d="M183.711 142.483C183.188 142.2 182.698 141.859 182.25 141.467L181.805 141.054C181.506 140.792 181.23 140.505 180.979 140.196C180.815 139.996 180.666 139.784 180.535 139.561C180.007 138.871 179.539 138.138 179.137 137.369L178.946 136.956C178.548 136.119 178.198 135.26 177.898 134.383C177.884 134.32 177.884 134.255 177.898 134.192C177.566 133.149 177.29 132.088 177.072 131.015C177.072 130.793 177.072 130.602 176.913 130.38C176.722 129.331 176.532 128.251 176.373 127.203V126.568C176.373 125.424 176.119 124.249 176.023 123.01V122.851C176.023 121.58 175.865 120.278 175.801 118.943C175.801 118.689 175.801 118.467 175.801 118.213V114.273V113.479C175.801 112.113 175.801 110.715 175.801 109.318C175.801 100.168 177.008 93.1795 179.994 90.0027C180.396 89.5705 180.856 89.1963 181.361 88.8909L168.653 96.261C164.682 98.5801 163.126 106.236 163.094 116.688C163.094 118.086 163.094 119.452 163.094 120.818V121.644V125.583C163.111 125.826 163.111 126.07 163.094 126.314C163.094 127.648 163.094 128.95 163.316 130.221C163.316 131.428 163.539 132.635 163.666 133.779V134.414C163.825 135.526 164.015 136.638 164.238 137.591C164.219 137.792 164.219 137.994 164.238 138.195C164.447 139.27 164.723 140.331 165.064 141.372C165.045 141.444 165.045 141.521 165.064 141.594C165.369 142.469 165.719 143.328 166.112 144.167L166.302 144.58C166.705 145.349 167.173 146.083 167.7 146.772C167.69 146.846 167.69 146.921 167.7 146.994L168.018 147.407H168.177C168.436 147.709 168.711 147.995 169.003 148.265L169.448 148.678C169.895 149.07 170.385 149.411 170.909 149.695C171.706 150.233 172.64 150.533 173.602 150.561C174.564 150.589 175.513 150.344 176.341 149.854L189.048 142.515C188.24 142.995 187.316 143.245 186.375 143.24C185.435 143.234 184.514 142.973 183.711 142.483Z" fill="#C74536"/>
<path d="M203.122 199.475L215.797 192.137L222.564 216.63L209.888 224L203.122 199.475Z" fill="#AB3529"/>
<path d="M191.24 163.164L203.947 155.794C202.732 159.783 200.201 163.243 196.768 165.61L184.061 172.949C187.492 170.594 190.023 167.144 191.24 163.164Z" fill="#C74536"/>
<path d="M238.225 169.581L225.518 176.952C224.631 177.503 223.608 177.796 222.564 177.796C221.519 177.796 220.496 177.503 219.609 176.952C214.081 173.775 211.318 165.166 211.349 149.059L224.057 141.689C224.057 157.796 226.789 166.373 232.316 169.581C233.203 170.133 234.226 170.426 235.271 170.426C236.315 170.426 237.338 170.133 238.225 169.581Z" fill="#AB3529"/>
<path d="M211.381 148.901L224.088 141.53C224.088 154.238 225.74 162.148 229.139 166.564L216.432 173.934C213.033 169.518 211.349 161.512 211.381 148.901Z" fill="#AB3529"/>
<path d="M216.432 173.934L229.139 166.564L229.552 167.104L216.845 174.442C216.845 174.442 216.559 174.124 216.432 173.934Z" fill="#AB3529"/>
<path d="M216.845 174.505L229.552 167.167C230.354 168.085 231.298 168.868 232.348 169.486C233.235 170.038 234.258 170.33 235.302 170.33C236.347 170.33 237.37 170.038 238.257 169.486L225.55 176.856C224.663 177.408 223.64 177.701 222.595 177.701C221.551 177.701 220.527 177.408 219.641 176.856C218.582 176.237 217.637 175.442 216.845 174.505Z" fill="#AB3529"/>
<path d="M146.511 70.6561L159.218 63.2859C166.811 58.8702 177.326 59.8232 189.779 67.0028C204.17 75.2942 222.945 91.6865 224.247 92.4171L211.54 99.7873C210.238 99.0566 191.463 82.6644 177.072 74.3729C164.619 67.1934 154.104 66.2403 146.511 70.6561Z" fill="#C74536"/>
<path d="M211.508 99.7555L224.184 92.4171L224.057 141.53L211.381 148.901L211.508 99.7555Z" fill="#AB3529"/>
<path d="M119.222 29.6118L131.93 22.2417C148.354 12.7113 172.021 16.4281 198.007 31.4544L185.3 38.8246C159.314 23.7983 135.646 20.0815 119.222 29.6118Z" fill="#C74536"/>
<path d="M119.222 29.6118L131.93 22.2417C148.354 12.7113 172.021 16.4281 198.007 31.4544L185.3 38.8246C159.314 23.7983 135.646 20.0815 119.222 29.6118Z" fill="#C74536"/>
<path d="M253.061 194.519L240.354 201.89C249.884 196.267 256.238 181.336 256.238 160.591C256.396 108.492 224.787 61.6022 185.141 38.7293L197.848 31.3591C237.494 54.2321 269.104 101.249 268.945 153.221C269.008 173.965 262.718 188.928 253.061 194.519Z" fill="#C74536"/>
<path d="M185.3 38.8247L198.007 31.4545C211.068 39.0465 222.815 48.7017 232.793 60.0457L220.086 67.4159C210.108 56.0718 198.361 46.4167 185.3 38.8247Z" fill="#C74536"/>
<path d="M220.086 67.5113L232.793 60.1411C235.557 63.3179 238.225 66.4947 240.735 69.9574L228.028 77.3276C225.518 73.9284 222.849 70.6563 220.086 67.5113Z" fill="#C74536"/>
<path d="M228.186 77.3275L240.894 69.9573C259.084 93.9617 269.034 123.199 269.262 153.316C269.262 173.966 262.909 188.928 253.378 194.615L240.671 201.985C250.202 196.362 256.555 181.431 256.555 160.687C256.326 130.57 246.376 101.332 228.186 77.3275Z" fill="#C74536"/>
<path d="M185.3 38.8246C224.946 61.6975 256.555 108.714 256.396 160.686C256.396 194.138 239.814 212.627 219.164 200.714C212.197 196.688 206.126 191.28 201.325 184.823C196.523 178.366 193.091 170.995 191.24 163.164C186.602 175.109 179.01 177.523 166.652 170.376C144.001 157.287 133.55 131.746 133.613 102.106C133.613 71.3867 151.276 59.4738 177.072 74.3729C191.463 82.6644 210.238 99.0566 211.54 99.7873L211.381 148.901C211.381 165.007 214.113 173.584 219.641 176.793C228.472 181.876 234.413 165.166 234.477 149.314C234.517 131.447 229.786 113.895 220.772 98.4693C211.758 83.0439 198.788 70.3054 183.203 61.5704C147.464 40.953 118.079 48.1643 117.952 97.913C117.952 130.126 130.119 165.42 167.16 186.863C178.373 193.034 190.521 197.326 203.121 199.57L209.888 224.064C194.351 222.679 179.309 217.896 165.826 210.054C131.517 190.262 95.9364 150.362 95.9364 86.1588C95.9364 21.9558 136.663 10.7099 185.3 38.8246ZM183.965 126.059V103.186C181.687 100.994 179.221 99.0065 176.595 97.2458C166.271 91.2735 162.744 100.709 162.681 116.593C162.681 131.651 163.348 145.374 171.099 149.854C178.279 154.015 183.807 142.801 183.807 126.059H183.965Z" fill="#ED604F"/>
</g>
<defs>
<linearGradient id="paint0_linear" x1="-18" y1="9.228e-06" x2="405" y2="257" gradientUnits="userSpaceOnUse">
<stop stop-color="#22E4FF"/>
<stop offset="1" stop-color="#FFD645"/>
</linearGradient>
<clipPath id="clip0">
<rect width="263.197" height="207" fill="white" transform="translate(96 17)"/>
</clipPath>
</defs>
</svg>
