<svg width="390" height="240" viewBox="0 0 390 240" fill="none" xmlns="http://www.w3.org/2000/svg">
<path d="M0 10C0 4.47716 4.47715 0 10 0H380C385.523 0 390 4.47715 390 10V240H0V10Z" fill="url(#paint0_linear)"/>
<g clip-path="url(#clip0)">
<g style="mix-blend-mode:multiply" opacity="0.7">
<path d="M231.407 50.7188L96 142.843L208.844 208.383L356 122.784L231.407 50.7188Z" fill="#BFBFBF"/>
</g>
<path d="M286.017 96.0575L285.848 163.527L208.844 208.383L209.014 140.914L286.017 96.0575Z" fill="#BB884F"/>
<path d="M209.014 140.914L208.844 208.383L96.3964 143.326L96.5945 75.8564L209.014 140.914Z" fill="#E0B477"/>
<path d="M286.017 96.0575L209.014 140.914L96.5945 75.8565L173.598 31L286.017 96.0575Z" fill="#EFCD90"/>
<path d="M143.618 48.449L127.707 57.7267L240.127 122.784L256.065 113.506L143.618 48.449Z" fill="#F7ECEA"/>
<path d="M240.155 122.784L256.065 113.506V129.622L240.155 138.814V122.784Z" fill="#C2AB9D"/>
<path d="M142.655 161.739V163.186L153.668 169.542V168.095L142.655 161.739Z" fill="#5C4123"/>
<path d="M144.778 162.136L145.996 162.846V155.072L147.241 155.781L145.401 151.497L143.533 153.625L144.778 154.362V162.136Z" fill="#5C4123"/>
<path d="M150.299 165.314L151.544 166.023V158.249L152.762 158.987L150.922 154.675L149.053 156.831L150.299 157.54V165.314Z" fill="#5C4123"/>
<path d="M153.554 172.123L142.74 165.853C141.686 165.228 140.793 164.362 140.134 163.327C139.475 162.292 139.068 161.117 138.946 159.895V149.057C138.946 146.957 140.645 146.22 142.74 147.44L153.554 153.71C154.605 154.337 155.493 155.203 156.147 156.238C156.801 157.273 157.203 158.448 157.32 159.668V170.535C157.32 172.549 155.649 173.287 153.554 172.123ZM142.74 148.206C141.07 147.241 139.711 147.808 139.711 149.482V160.321C139.808 161.301 140.133 162.245 140.659 163.078C141.185 163.91 141.897 164.608 142.74 165.116L153.554 171.357C155.225 172.322 156.584 171.755 156.584 170.081V159.243C156.491 158.265 156.168 157.323 155.641 156.494C155.114 155.666 154.399 154.974 153.554 154.476L142.74 148.206Z" fill="#5C4123"/>
<path d="M176.401 175.415C176.401 175.159 175.466 174.365 174.136 173.599C172.805 172.833 171.871 172.549 171.871 172.804C171.371 172.134 170.722 171.589 169.974 171.215V177.798C169.974 178.536 169.21 178.649 168.417 178.167C167.977 177.914 167.602 177.562 167.322 177.138C167.042 176.715 166.864 176.231 166.804 175.727C166.804 175.5 166.973 175.415 167.172 175.528C167.272 175.592 167.356 175.68 167.415 175.784C167.474 175.888 167.507 176.004 167.511 176.124C167.556 176.392 167.66 176.646 167.817 176.867C167.974 177.088 168.179 177.271 168.417 177.401C169.351 177.968 169.267 176.805 169.267 176.805V170.676C168.134 170.081 167.37 169.854 167.37 170.081C167.37 170.308 167.37 170.081 167.37 170.081C167.37 169.825 166.436 169.031 165.105 168.265C163.774 167.499 162.84 167.215 162.84 167.442C162.84 167.669 162.84 167.442 162.84 167.442C162.84 164.747 165.841 163.697 169.351 165.456C169.351 165.286 169.578 165.257 169.861 165.456C169.989 165.52 170.101 165.612 170.189 165.725C170.278 165.837 170.339 165.969 170.371 166.109C172.038 167.165 173.475 168.55 174.594 170.179C175.713 171.807 176.492 173.646 176.882 175.585C176.882 175.585 176.401 175.443 176.401 175.415Z" fill="#5C4123"/>
<path d="M174.844 184.38L164.029 178.138C162.974 177.507 162.082 176.636 161.423 175.597C160.764 174.557 160.358 173.377 160.236 172.152V161.314C160.236 159.214 161.934 158.476 164.029 159.696L174.844 165.967C175.901 166.595 176.796 167.465 177.455 168.505C178.115 169.545 178.52 170.727 178.637 171.953V182.791C178.637 184.891 176.939 185.6 174.844 184.38ZM164.029 160.463C162.359 159.498 161 160.065 161 161.739V172.577C161.098 173.558 161.422 174.502 161.948 175.334C162.474 176.167 163.187 176.865 164.029 177.372L174.844 183.614C176.514 184.579 177.873 184.012 177.873 182.338V171.499C177.775 170.523 177.451 169.583 176.924 168.755C176.398 167.927 175.686 167.234 174.844 166.733L164.029 160.463Z" fill="#5C4123"/>
<path d="M193.585 183.472C193.585 185.175 192.424 185.884 190.952 185.175V190.537L192.821 191.615V192.296L188.631 189.884V189.147L190.499 190.225V184.863C189.741 184.308 189.112 183.594 188.658 182.771C188.203 181.947 187.933 181.035 187.866 180.096V176.096L193.528 179.415L193.585 183.472Z" fill="#5C4123"/>
<path d="M196.218 196.722L185.403 190.452C184.355 189.815 183.469 188.943 182.816 187.904C182.162 186.865 181.759 185.688 181.638 184.465V173.627C181.638 171.528 183.337 170.79 185.403 172.038L196.218 178.28C197.272 178.912 198.165 179.783 198.824 180.822C199.482 181.862 199.889 183.041 200.011 184.267V195.105C199.926 197.205 198.228 197.914 196.218 196.722ZM185.403 172.804C183.733 171.84 182.374 172.407 182.374 174.081V184.919C182.471 185.896 182.796 186.836 183.323 187.664C183.849 188.492 184.561 189.184 185.403 189.686L196.218 195.956C197.888 196.921 199.247 196.353 199.247 194.679V183.841C199.149 182.861 198.825 181.917 198.299 181.084C197.773 180.252 197.06 179.554 196.218 179.046L185.403 172.804Z" fill="#5C4123"/>
</g>
<defs>
<linearGradient id="paint0_linear" x1="0" y1="0" x2="390" y2="240" gradientUnits="userSpaceOnUse">
<stop stop-color="#4B03C0"/>
<stop offset="1" stop-color="#EFCD90"/>
</linearGradient>
<clipPath id="clip0">
<rect width="260" height="177.383" fill="white" transform="translate(96 31)"/>
</clipPath>
</defs>
</svg>
