<svg id="Layer_1" data-name="Layer 1" xmlns="http://www.w3.org/2000/svg" xmlns:xlink="http://www.w3.org/1999/xlink" viewBox="0 0 2023.12 450.01"><defs><style>.cls-1{fill:url(#linear-gradient);}.cls-2{fill:url(#linear-gradient-2);}</style><linearGradient id="linear-gradient" x1="110.41" y1="281.24" x2="292.19" y2="82.38" gradientTransform="matrix(1, 0, 0, -1, 0, 502)" gradientUnits="userSpaceOnUse"><stop offset="0" stop-color="#5128af"/><stop offset="0.28" stop-color="#414cc6"/><stop offset="1" stop-color="#1aa4ff"/></linearGradient><linearGradient id="linear-gradient-2" x1="31.71" y1="200.7" x2="249.9" y2="412.57" gradientTransform="matrix(1, 0, 0, -1, 0, 502)" gradientUnits="userSpaceOnUse"><stop offset="0" stop-color="#1aa9ff"/><stop offset="0.77" stop-color="#3051c2"/><stop offset="1" stop-color="#3735af"/></linearGradient></defs><path class="cls-1" d="M304.13,178.5A153.58,153.58,0,0,1,200.21,323.82V374.9A100.11,100.11,0,1,1,0,374.88V158.47a99.52,99.52,0,0,1,1.07-14.64s0-.06,0-.08a153.51,153.51,0,0,1,303,34.75Z" transform="translate(0 -25)"/><path class="cls-2" d="M304.13,178.5A153.58,153.58,0,0,1,200.21,323.82s-31.54,13.75-39.09,17.71c0,0-57.61,27.42-76.61,37-26.77,13.46-36.8,46.68-22.9,73.22a53.88,53.88,0,0,0,20.71,21.7A100.14,100.14,0,0,1,0,374.9V158.47a99.52,99.52,0,0,1,1.07-14.64s0-.06,0-.08a153.51,153.51,0,0,1,303,34.75Z" transform="translate(0 -25)"/><path d="M362.32,467V257h87.3a62.24,62.24,0,0,1,32.55,8.71A65.74,65.74,0,0,1,514.12,323a67.28,67.28,0,0,1-31.95,58.21,60.65,60.65,0,0,1-32.55,9h-48.3V467Zm39-112.79h45.6A23.63,23.63,0,0,0,460.57,350a31.34,31.34,0,0,0,9.9-11.09,32.15,32.15,0,0,0,3.75-15.61,31.3,31.3,0,0,0-3.75-15.45,30.49,30.49,0,0,0-9.9-10.8A24.31,24.31,0,0,0,446.92,293h-45.6Z" transform="translate(0 -25)"/><path d="M548.92,467V308.91h36.3l.6,50.39-5.1-11.39a56.37,56.37,0,0,1,11.4-21.61,61.83,61.83,0,0,1,18.75-15.14,47.7,47.7,0,0,1,22.35-5.56,52.13,52.13,0,0,1,9.75.9,43.91,43.91,0,0,1,7.65,2.1l-9.9,40.5a35.66,35.66,0,0,0-8.1-3,40,40,0,0,0-9.6-1.19,36.43,36.43,0,0,0-14.25,2.84,37.06,37.06,0,0,0-11.85,8A36.67,36.67,0,0,0,589,367.55a38.47,38.47,0,0,0-2.85,15.16V467Z" transform="translate(0 -25)"/><path d="M740.92,470q-23.7,0-42.3-10.65a78.39,78.39,0,0,1-29.4-29.25q-10.8-18.59-10.8-42.3t10.8-42.3a78.68,78.68,0,0,1,29.4-29.25q18.6-10.63,42.3-10.65,23.4,0,42,10.65a77.64,77.64,0,0,1,29.25,29.25q10.64,18.62,10.65,42.3t-10.65,42.3a77.36,77.36,0,0,1-29.25,29.25Q764.31,470,740.92,470Zm0-32.7a40.9,40.9,0,0,0,23-6.59A46.88,46.88,0,0,0,779.77,413a50.9,50.9,0,0,0,5.55-25.2q.28-14.39-5.55-25.5a45.89,45.89,0,0,0-15.9-17.55,41.69,41.69,0,0,0-23-6.45,43.14,43.14,0,0,0-23.25,6.45,43.65,43.65,0,0,0-16,17.71,55.28,55.28,0,0,0-5.7,25.34,54.31,54.31,0,0,0,5.7,25.2,44.83,44.83,0,0,0,16,17.71A42.32,42.32,0,0,0,740.92,437.3Z" transform="translate(0 -25)"/><path d="M855.21,467V308.91h36.3l.61,31.8-6,2.39a49,49,0,0,1,8.09-14.55,55.67,55.67,0,0,1,12.91-11.7,69.15,69.15,0,0,1,15.89-7.8,53.16,53.16,0,0,1,17.11-2.84,61,61,0,0,1,22.94,4A39.93,39.93,0,0,1,979.87,323q6.75,8.72,10,22.21L984.21,344l2.41-4.79a43,43,0,0,1,9.3-13,77.26,77.26,0,0,1,13.5-10.5,63.45,63.45,0,0,1,15.75-7.06,58.6,58.6,0,0,1,16.34-2.39q18,0,30,7.2t18,21.89q6,14.71,6,36.3V467h-37.2V374q0-12-3.14-19.79a22.68,22.68,0,0,0-9.61-11.55q-6.45-3.75-16-3.75a40,40,0,0,0-14.25,2.55,33.26,33.26,0,0,0-11.55,7.2,34.4,34.4,0,0,0-7.5,10.64,32,32,0,0,0-2.7,13.2V467h-37.2V373.71q0-11.4-3.3-19a25.37,25.37,0,0,0-9.59-11.7q-6.31-4.06-15.3-4A38.8,38.8,0,0,0,914,341.46a34.62,34.62,0,0,0-11.39,7,32.54,32.54,0,0,0-7.5,10.5,31.72,31.72,0,0,0-2.7,13.21V467Z" transform="translate(0 -25)"/><path d="M1210.71,470q-24.9,0-44-10.5a76.37,76.37,0,0,1-29.7-28.65q-10.65-18.14-10.65-41.55a92.07,92.07,0,0,1,6-33.89,81.41,81.41,0,0,1,16.65-26.56,73.21,73.21,0,0,1,25.5-17.39,84.26,84.26,0,0,1,32.55-6.16,71,71,0,0,1,29.1,6,73.13,73.13,0,0,1,23.4,16.36,70.2,70.2,0,0,1,15.15,24.59,84.78,84.78,0,0,1,5,31.05l-.3,12.91h-128.1l-6.9-25.21h104.1l-4.8,5.1v-6.6a32.72,32.72,0,0,0-6-16.34,36.06,36.06,0,0,0-13-11.11,38.1,38.1,0,0,0-17.55-4.05q-14.7,0-24.75,5.71a36.41,36.41,0,0,0-15.15,16.34q-5.1,10.67-5.1,26.55,0,15.3,6.45,26.7a43.53,43.53,0,0,0,18.3,17.55q11.85,6.16,27.75,6.15a56.26,56.26,0,0,0,20.4-3.59q9.3-3.62,20.1-12.91l18.3,25.5A80.1,80.1,0,0,1,1255,458.75a108.36,108.36,0,0,1-21.75,8.25A88.15,88.15,0,0,1,1210.71,470Z" transform="translate(0 -25)"/><path d="M1312.41,467V308.91h36l.6,32.39-6.9,3.61a45.15,45.15,0,0,1,11.7-19.66,67.75,67.75,0,0,1,20.7-14.25,59.53,59.53,0,0,1,24.6-5.4q18,0,30.15,7.2t18.3,21.61q6.15,14.38,6.15,36V467h-36.9V373.1q0-12-3.3-19.94a22.68,22.68,0,0,0-10.2-11.7q-6.9-3.75-16.8-3.46a41.93,41.93,0,0,0-14.85,2.55,35,35,0,0,0-19.5,17.86,30.33,30.33,0,0,0-2.85,13.19V467h-36.9Z" transform="translate(0 -25)"/><path d="M1554.81,470a61.59,61.59,0,0,1-35.4-10.79q-15.9-10.81-25.5-29.41t-9.6-42.3q0-23.69,9.6-42.29A73.85,73.85,0,0,1,1520,316.1a67.9,67.9,0,0,1,37.2-10.5,66.45,66.45,0,0,1,21.9,3.45,55,55,0,0,1,17.4,9.75A58.57,58.57,0,0,1,1609,333.21a52,52,0,0,1,6.75,17.39l-8.1-2.1V308.91h37.2V467h-37.5V429.21l8.7-1.5a47,47,0,0,1-7.65,15.75,59.47,59.47,0,0,1-13.8,13.5,76.13,76.13,0,0,1-18.3,9.45A63.37,63.37,0,0,1,1554.81,470Zm10.2-32.7a41.46,41.46,0,0,0,22.8-6.3,42.6,42.6,0,0,0,15.45-17.54q5.55-11.25,5.55-26,0-14.38-5.55-25.5a42.9,42.9,0,0,0-15.45-17.4,41.63,41.63,0,0,0-22.8-6.3,40.89,40.89,0,0,0-22.65,6.3,42.23,42.23,0,0,0-15.15,17.4q-5.4,11.12-5.4,25.5,0,14.72,5.4,26A42,42,0,0,0,1542.36,431,40.72,40.72,0,0,0,1565,437.3Z" transform="translate(0 -25)"/><path d="M1751.31,470q-21,0-37.65-10.65a75.78,75.78,0,0,1-26.4-29.1q-9.75-18.44-9.75-42.45,0-23.68,9.6-42.3a74.6,74.6,0,0,1,26.25-29.25,70.88,70.88,0,0,1,59.7-7,69.6,69.6,0,0,1,19,9.75,53.93,53.93,0,0,1,13.35,13.64,32.43,32.43,0,0,1,5.55,15.61l-9.9,1.2V245H1838V467h-35.7l-.9-37.2,7.2.61a26.17,26.17,0,0,1-5.25,14.39,56.36,56.36,0,0,1-12.75,12.61,65.47,65.47,0,0,1-18.15,9.14A66.46,66.46,0,0,1,1751.31,470Zm7.2-31.2a40.14,40.14,0,0,0,22.8-6.59,44.57,44.57,0,0,0,15.45-18q5.55-11.4,5.55-26.41a59.93,59.93,0,0,0-5.55-26.25,43.42,43.42,0,0,0-15.45-18,43.52,43.52,0,0,0-45.6,0,43.42,43.42,0,0,0-15.45,18,59.93,59.93,0,0,0-5.55,26.25q0,15,5.55,26.41a44.57,44.57,0,0,0,15.45,18A40.14,40.14,0,0,0,1758.51,438.8Z" transform="translate(0 -25)"/><path d="M1954.11,470q-24.91,0-43.95-10.5a76.24,76.24,0,0,1-29.7-28.65q-10.67-18.14-10.65-41.55a91.86,91.86,0,0,1,6-33.89,81.08,81.08,0,0,1,16.65-26.56,73.12,73.12,0,0,1,25.5-17.39,84.22,84.22,0,0,1,32.55-6.16,71,71,0,0,1,29.1,6,73.13,73.13,0,0,1,23.4,16.36,70.34,70.34,0,0,1,15.15,24.59,85.2,85.2,0,0,1,4.95,31.05l-.3,12.91h-128.1l-6.9-25.21h104.1l-4.8,5.1v-6.6a32.82,32.82,0,0,0-6-16.34,36.23,36.23,0,0,0-13-11.11,38.16,38.16,0,0,0-17.55-4.05q-14.7,0-24.75,5.71a36.3,36.3,0,0,0-15.15,16.34q-5.11,10.67-5.1,26.55,0,15.3,6.45,26.7a43.41,43.41,0,0,0,18.3,17.55Q1942.1,437,1958,437a56.3,56.3,0,0,0,20.4-3.59q9.28-3.62,20.1-12.91l18.3,25.5a80.1,80.1,0,0,1-18.45,12.75,108.36,108.36,0,0,1-21.75,8.25A88.27,88.27,0,0,1,1954.11,470Z" transform="translate(0 -25)"/></svg>