<?xml version="1.0" encoding="utf-8"?>
<!-- Generator: Adobe Illustrator 25.3.1, SVG Export Plug-In . SVG Version: 6.00 Build 0)  -->
<svg version="1.1" id="Layer_1" xmlns="http://www.w3.org/2000/svg" xmlns:xlink="http://www.w3.org/1999/xlink" x="0px" y="0px"
	 viewBox="0 0 500 500" style="enable-background:new 0 0 500 500;" xml:space="preserve">
<style type="text/css">
	.st0{fill:url(#SVGID_1_);}
	.st1{fill:url(#SVGID_2_);}
</style>
<g>
	<linearGradient id="SVGID_1_" gradientUnits="userSpaceOnUse" x1="208.1232" y1="220.6717" x2="389.8988" y2="419.5324">
		<stop  offset="0" style="stop-color:#5128AF"/>
		<stop  offset="0.2814" style="stop-color:#414CC6"/>
		<stop  offset="1" style="stop-color:#1AA4FF"/>
	</linearGradient>
	<path class="st0" d="M401.84,178.41c0,67.42-43.47,124.7-103.92,145.32v51.08c0,55.28-44.83,100.11-100.11,100.11
		S97.71,430.08,97.71,374.8V158.38c0-4.98,0.36-9.86,1.07-14.64c0-0.02,0.02-0.06,0.02-0.08c3.51-15.16,9.27-29.46,16.91-42.52
		c26.58-45.59,76.04-76.23,132.64-76.23C333.12,24.91,401.84,93.63,401.84,178.41z"/>
	<linearGradient id="SVGID_2_" gradientUnits="userSpaceOnUse" x1="129.4139" y1="301.2085" x2="347.6063" y2="89.3407">
		<stop  offset="0" style="stop-color:#1AA9FF"/>
		<stop  offset="0.7669" style="stop-color:#3051C2"/>
		<stop  offset="1" style="stop-color:#3735AF"/>
	</linearGradient>
	<path class="st1" d="M401.84,178.41c0,67.42-43.47,124.7-103.92,145.32c0,0-31.54,13.75-39.09,17.71c0,0-57.61,27.42-76.61,36.97
		c-26.77,13.46-36.8,46.68-22.9,73.22c4.9,9.38,12.18,16.74,20.71,21.7c-46.79-8.39-82.32-49.31-82.32-98.52V158.38
		c0-4.98,0.36-9.86,1.07-14.64c0-0.02,0.02-0.06,0.02-0.08c3.51-15.16,9.27-29.46,16.91-42.52c26.58-45.59,76.04-76.23,132.64-76.23
		C333.12,24.91,401.84,93.63,401.84,178.41z"/>
</g>
</svg>
