<?xml version="1.0" encoding="utf-8"?>
<!-- Generator: Adobe Illustrator 25.3.1, SVG Export Plug-In . SVG Version: 6.00 Build 0)  -->
<svg version="1.1" id="Layer_1" xmlns="http://www.w3.org/2000/svg" xmlns:xlink="http://www.w3.org/1999/xlink" x="0px" y="0px"
	 viewBox="0 0 700 1000" style="enable-background:new 0 0 700 1000;" xml:space="preserve">
<style type="text/css">
	.st0{fill:url(#SVGID_1_);}
	.st1{fill:url(#SVGID_2_);}
</style>
<g>
	<linearGradient id="SVGID_1_" gradientUnits="userSpaceOnUse" x1="260.8093" y1="438.7806" x2="664.608" y2="880.5327">
		<stop  offset="0.0436" style="stop-color:#DC0023"/>
		<stop  offset="1" style="stop-color:#EDA73E"/>
	</linearGradient>
	<path class="st0" d="M687.56,340.98c0,149.78-96.58,277.02-230.85,322.81v113.48c0,122.79-99.58,222.38-222.38,222.38
		S11.96,900.05,11.96,777.26V296.5c0-11.06,0.8-21.9,2.37-32.53c0-0.04,0.04-0.13,0.04-0.17c7.79-33.67,20.59-65.44,37.57-94.46
		C110.99,68.07,220.86,0,346.58,0C534.9,0,687.56,152.66,687.56,340.98z"/>
	<linearGradient id="SVGID_2_" gradientUnits="userSpaceOnUse" x1="113.7984" y1="811.7371" x2="512.9376" y2="4.6028">
		<stop  offset="0" style="stop-color:#EF803D"/>
		<stop  offset="1" style="stop-color:#F52310"/>
	</linearGradient>
	<path class="st1" d="M687.56,340.98c0,149.78-96.58,277.02-230.85,322.81c0,0-70.06,30.54-86.83,39.35
		c0,0-127.99,60.9-170.19,82.13c-59.46,29.91-81.75,103.69-50.87,162.65c10.89,20.84,27.07,37.19,46,48.2
		C90.87,977.48,11.96,886.58,11.96,777.26V296.5c0-11.06,0.8-21.9,2.37-32.53c0-0.04,0.04-0.13,0.04-0.17
		c7.79-33.67,20.59-65.44,37.57-94.46C110.99,68.07,220.86,0,346.58,0C534.9,0,687.56,152.66,687.56,340.98z"/>
</g>
</svg>
