<svg xmlns="http://www.w3.org/2000/svg" xmlns:xlink="http://www.w3.org/1999/xlink" viewBox="0 0 2023.12 450.01"><defs><style>.cls-1{fill:url(#linear-gradient);}.cls-2{fill:url(#linear-gradient-2);}.cls-3{fill:#fff;}</style><linearGradient id="linear-gradient" x1="121.33" y1="226.93" x2="254.49" y2="372.61" gradientTransform="translate(0 -23)" gradientUnits="userSpaceOnUse"><stop offset="0" stop-color="#9ca7c1"/><stop offset="1" stop-color="#fff"/></linearGradient><linearGradient id="linear-gradient-2" x1="63.91" y1="285.74" x2="223.74" y2="130.53" gradientTransform="translate(0 -23)" gradientUnits="userSpaceOnUse"><stop offset="0" stop-color="#fff"/><stop offset="1" stop-color="#c1c1c1"/></linearGradient></defs><g id="Layer_1" data-name="Layer 1"><path class="cls-1" d="M263.46,172.77a112.49,112.49,0,0,1-76.13,106.45v37.42a73.33,73.33,0,1,1-146.66,1.45c0-.48,0-1,0-1.46V158.1a74.07,74.07,0,0,1,.78-10.73v-.06a112.46,112.46,0,0,1,222,25.46Z"/><path class="cls-2" d="M263.46,172.77a112.49,112.49,0,0,1-76.13,106.45s-23.1,10.08-28.63,13c0,0-42.2,20.08-56.12,27.1-19.61,9.86-27,34.2-16.78,53.64A39.49,39.49,0,0,0,101,388.84a73.38,73.38,0,0,1-60.3-72.2V158.1a74.07,74.07,0,0,1,.78-10.73v-.06a112.46,112.46,0,0,1,222,25.46Z"/><path class="cls-3" d="M362.32,335.05v-210h87.3a62.3,62.3,0,0,1,32.55,8.71,65.74,65.74,0,0,1,31.95,57.29,67.28,67.28,0,0,1-31.95,58.21,60.69,60.69,0,0,1-32.55,9h-48.3v76.79Zm39-112.79h45.6a23.6,23.6,0,0,0,13.65-4.21,31.31,31.31,0,0,0,9.9-11.09,32.14,32.14,0,0,0,3.75-15.61,31.31,31.31,0,0,0-3.75-15.45,30.44,30.44,0,0,0-9.9-10.8,24.34,24.34,0,0,0-13.65-4h-45.6Z"/><path class="cls-3" d="M548.92,335.05V177h36.3l.6,50.39L580.72,216a56.42,56.42,0,0,1,11.4-21.61,61.9,61.9,0,0,1,18.75-15.14,47.71,47.71,0,0,1,22.35-5.56,53.11,53.11,0,0,1,9.75.9,44,44,0,0,1,7.65,2.1l-9.9,40.5a36,36,0,0,0-8.1-3A40.32,40.32,0,0,0,623,213a36.5,36.5,0,0,0-14.25,2.84A37.17,37.17,0,0,0,589,235.6a38.61,38.61,0,0,0-2.85,15.16v84.29Z"/><path class="cls-3" d="M740.92,338.05q-23.7,0-42.3-10.65a78.39,78.39,0,0,1-29.4-29.25q-10.8-18.58-10.8-42.3t10.8-42.3a78.75,78.75,0,0,1,29.4-29.25q18.6-10.62,42.3-10.65,23.4,0,42,10.65a77.71,77.71,0,0,1,29.25,29.25q10.64,18.63,10.65,42.3t-10.65,42.3a77.29,77.29,0,0,1-29.25,29.25Q764.31,338.05,740.92,338.05Zm0-32.7a40.87,40.87,0,0,0,23-6.59,46.77,46.77,0,0,0,15.85-17.71,50.87,50.87,0,0,0,5.55-25.2q.28-14.39-5.55-25.5a45.91,45.91,0,0,0-15.9-17.55,41.66,41.66,0,0,0-23-6.45,43.16,43.16,0,0,0-23.25,6.45,43.6,43.6,0,0,0-16,17.71,55.23,55.23,0,0,0-5.7,25.34,54.35,54.35,0,0,0,5.7,25.2,44.85,44.85,0,0,0,16,17.71A42.32,42.32,0,0,0,740.92,305.35Z"/><path class="cls-3" d="M855.21,335.05V177h36.3l.61,31.8-6,2.39a49,49,0,0,1,8.09-14.55,55.75,55.75,0,0,1,12.91-11.7A69.18,69.18,0,0,1,923,177.1a53.26,53.26,0,0,1,17.11-2.84,61.13,61.13,0,0,1,22.94,4,40,40,0,0,1,16.81,12.79q6.75,8.73,10,22.21l-5.66-1.21,2.41-4.79a43.07,43.07,0,0,1,9.3-13,77.49,77.49,0,0,1,13.5-10.5,63.51,63.51,0,0,1,15.75-7.06,58.73,58.73,0,0,1,16.34-2.39q18,0,30,7.2t18,21.89q6,14.72,6,36.3v95.35h-37.2v-93q0-12-3.14-19.79a22.72,22.72,0,0,0-9.61-11.55q-6.45-3.75-16-3.75a40.08,40.08,0,0,0-14.25,2.55,33.23,33.23,0,0,0-11.55,7.2,34.53,34.53,0,0,0-7.5,10.64,31.91,31.91,0,0,0-2.7,13.2v94.5h-37.2V241.76q0-11.4-3.3-19a25.42,25.42,0,0,0-9.59-11.7,27.4,27.4,0,0,0-15.3-4A38.94,38.94,0,0,0,914,209.51a34.62,34.62,0,0,0-11.39,7,32.54,32.54,0,0,0-7.5,10.5,31.64,31.64,0,0,0-2.7,13.21v94.83Z"/><path class="cls-3" d="M1210.71,338.05q-24.9,0-44-10.5A76.29,76.29,0,0,1,1137,298.9q-10.65-18.13-10.65-41.55a92.09,92.09,0,0,1,6-33.89A81.4,81.4,0,0,1,1149,196.9a73.28,73.28,0,0,1,25.5-17.39,84.24,84.24,0,0,1,32.55-6.16,71.1,71.1,0,0,1,29.1,6,73,73,0,0,1,23.4,16.36,70.18,70.18,0,0,1,15.15,24.59,84.86,84.86,0,0,1,5,31l-.3,12.91h-128.1l-6.9-25.21h104.1l-4.8,5.1v-6.6a32.74,32.74,0,0,0-6-16.34,36.12,36.12,0,0,0-13-11.11,38.16,38.16,0,0,0-17.55-4q-14.7,0-24.75,5.71a36.47,36.47,0,0,0-15.15,16.34q-5.1,10.68-5.1,26.55,0,15.3,6.45,26.7a43.44,43.44,0,0,0,18.3,17.55q11.85,6.17,27.75,6.15a56.17,56.17,0,0,0,20.4-3.59q9.3-3.61,20.1-12.91l18.3,25.5A79.77,79.77,0,0,1,1255,326.8a108.23,108.23,0,0,1-21.75,8.25A88,88,0,0,1,1210.71,338.05Z"/><path class="cls-3" d="M1312.41,335.05V177h36l.6,32.39-6.9,3.61a45.2,45.2,0,0,1,11.7-19.66,67.75,67.75,0,0,1,20.7-14.25,59.67,59.67,0,0,1,24.6-5.4q18,0,30.15,7.2t18.3,21.61q6.15,14.39,6.15,36v96.59h-36.9v-93.9q0-12-3.3-19.94a22.69,22.69,0,0,0-10.2-11.7q-6.9-3.75-16.8-3.46a42,42,0,0,0-14.85,2.55,35,35,0,0,0-19.5,17.86,30.37,30.37,0,0,0-2.85,13.19v95.4Z"/><path class="cls-3" d="M1554.81,338.05a61.56,61.56,0,0,1-35.4-10.79q-15.9-10.8-25.5-29.41t-9.6-42.3q0-23.69,9.6-42.29A73.89,73.89,0,0,1,1520,184.15a67.87,67.87,0,0,1,37.2-10.5,66.55,66.55,0,0,1,21.9,3.45,55,55,0,0,1,17.4,9.75,58.58,58.58,0,0,1,12.5,14.41,52,52,0,0,1,6.75,17.39l-8.1-2.1V177h37.2V335.05h-37.5V297.26l8.7-1.5a47,47,0,0,1-7.65,15.75,59.54,59.54,0,0,1-13.8,13.5,75.63,75.63,0,0,1-18.3,9.45A63.38,63.38,0,0,1,1554.81,338.05Zm10.2-32.7a41.45,41.45,0,0,0,22.8-6.3,42.61,42.61,0,0,0,15.45-17.54q5.55-11.25,5.55-26a56.4,56.4,0,0,0-5.55-25.5,43,43,0,0,0-15.45-17.4,41.62,41.62,0,0,0-22.8-6.3,40.93,40.93,0,0,0-22.65,6.3,42.25,42.25,0,0,0-15.15,17.4,57.71,57.71,0,0,0-5.4,25.5q0,14.73,5.4,26a41.94,41.94,0,0,0,15.15,17.54,40.72,40.72,0,0,0,22.64,6.3Z"/><path class="cls-3" d="M1751.31,338.05a68.37,68.37,0,0,1-37.65-10.65,75.77,75.77,0,0,1-26.4-29.1q-9.75-18.44-9.75-42.45,0-23.67,9.6-42.3a74.61,74.61,0,0,1,26.25-29.25,70.89,70.89,0,0,1,59.7-7,69.64,69.64,0,0,1,19,9.75,53.91,53.91,0,0,1,13.35,13.64A32.5,32.5,0,0,1,1811,216.3l-9.9,1.2V113.05H1838v222h-35.7l-.9-37.2,7.2.61a26.17,26.17,0,0,1-5.25,14.39,56.09,56.09,0,0,1-12.75,12.61,65.47,65.47,0,0,1-18.15,9.14A66.32,66.32,0,0,1,1751.31,338.05Zm7.2-31.2a40.11,40.11,0,0,0,22.8-6.59,44.53,44.53,0,0,0,15.45-18q5.55-11.4,5.55-26.41a59.89,59.89,0,0,0-5.55-26.25,41.94,41.94,0,0,0-76.5,0,59.89,59.89,0,0,0-5.55,26.25q0,15,5.55,26.41a44.53,44.53,0,0,0,15.45,18A40.11,40.11,0,0,0,1758.51,306.85Z"/><path class="cls-3" d="M1954.11,338.05q-24.91,0-43.95-10.5a76.23,76.23,0,0,1-29.7-28.65q-10.67-18.13-10.65-41.55a91.89,91.89,0,0,1,6-33.89,81.24,81.24,0,0,1,16.65-26.56,73.28,73.28,0,0,1,25.5-17.39,84.24,84.24,0,0,1,32.55-6.16,71.1,71.1,0,0,1,29.1,6,73,73,0,0,1,23.4,16.36,70.27,70.27,0,0,1,15.15,24.59,85.27,85.27,0,0,1,4.95,31l-.3,12.91h-128.1l-6.9-25.21h104.1l-4.8,5.1v-6.6a32.83,32.83,0,0,0-6-16.34,36.12,36.12,0,0,0-13-11.11,38.16,38.16,0,0,0-17.55-4q-14.7,0-24.75,5.71a36.31,36.31,0,0,0-15.15,16.34q-5.12,10.68-5.1,26.55,0,15.3,6.45,26.7a43.44,43.44,0,0,0,18.3,17.55q11.79,6.15,27.69,6.15a56.17,56.17,0,0,0,20.4-3.59q9.28-3.61,20.1-12.91l18.3,25.5a79.72,79.72,0,0,1-18.45,12.75,108.23,108.23,0,0,1-21.75,8.25A88.1,88.1,0,0,1,1954.11,338.05Z"/></g></svg>