<?xml version="1.0" encoding="utf-8"?>
<!-- Generator: Adobe Illustrator 25.3.1, SVG Export Plug-In . SVG Version: 6.00 Build 0)  -->
<svg version="1.1" id="Layer_1" xmlns="http://www.w3.org/2000/svg" xmlns:xlink="http://www.w3.org/1999/xlink" x="0px" y="0px"
	 viewBox="0 0 2023.1 450" style="enable-background:new 0 0 2023.1 450;" xml:space="preserve">
<style type="text/css">
	.st0{fill:#FFFFFF;}
	.st1{fill:url(#SVGID_1_);}
	.st2{fill:url(#SVGID_2_);}
</style>
<path class="st0" d="M362.3,442V232h87.3c11.4-0.1,22.7,2.9,32.5,8.7c20.1,12,32.3,33.9,32,57.3c0.3,23.7-11.8,45.8-32,58.2
	c-9.8,6-21.1,9.1-32.5,9h-48.3V442H362.3z M401.3,329.2h45.6c4.9,0,9.6-1.4,13.6-4.2c4.1-2.9,7.5-6.6,9.9-11.1
	c2.5-4.8,3.8-10.2,3.8-15.6c0.1-5.4-1.2-10.7-3.8-15.5c-2.4-4.4-5.8-8.1-9.9-10.8c-4-2.7-8.8-4.1-13.6-4h-45.6V329.2z"/>
<path class="st0" d="M548.9,442V283.9h36.3l0.6,50.4l-5.1-11.4c2.2-8,6.1-15.3,11.4-21.6c5.2-6.2,11.6-11.4,18.8-15.1
	c6.9-3.6,14.6-5.6,22.3-5.6c3.3,0,6.5,0.3,9.8,0.9c2.6,0.5,5.2,1.2,7.7,2.1l-9.9,40.5c-2.6-1.3-5.3-2.3-8.1-3
	c-3.1-0.8-6.4-1.2-9.6-1.2c-4.9,0-9.7,1-14.2,2.8c-4.4,1.9-8.5,4.6-11.8,8c-3.4,3.4-6.1,7.4-7.9,11.8c-2,4.8-2.9,10-2.8,15.2V442
	H548.9z"/>
<path class="st0" d="M740.9,445c-15.8,0-29.9-3.5-42.3-10.6c-12.2-6.9-22.4-17-29.4-29.2c-7.2-12.4-10.8-26.5-10.8-42.3
	s3.6-29.9,10.8-42.3c7-12.2,17.2-22.3,29.4-29.2c12.4-7.1,26.5-10.6,42.3-10.6c15.6,0,29.6,3.5,42,10.6c12.2,6.9,22.3,17,29.2,29.2
	c7.1,12.4,10.6,26.5,10.7,42.3c0,15.8-3.5,29.9-10.7,42.3c-6.9,12.2-17,22.3-29.2,29.2C770.5,441.5,756.5,445,740.9,445z
	 M740.9,412.3c8.2,0.1,16.2-2.1,23-6.6c6.7-4.4,12.2-10.5,15.8-17.7c4-7.8,5.9-16.5,5.5-25.2c0.2-9.6-1.7-18.1-5.5-25.5
	c-3.7-7.1-9.2-13.2-15.9-17.5c-6.9-4.4-14.9-6.6-23-6.5c-8.2-0.1-16.3,2.1-23.2,6.5c-6.9,4.3-12.4,10.4-16,17.7
	c-3.9,7.9-5.8,16.6-5.7,25.3c-0.2,8.7,1.8,17.4,5.7,25.2c3.6,7.2,9.2,13.4,16,17.7C724.6,410.1,732.7,412.4,740.9,412.3z"/>
<path class="st0" d="M855.2,442V283.9h36.3l0.6,31.8l-6,2.4c1.8-5.3,4.6-10.2,8.1-14.5c3.7-4.5,8-8.5,12.9-11.7
	c4.9-3.3,10.3-5.9,15.9-7.8c5.5-1.9,11.3-2.8,17.1-2.8c7.8-0.1,15.6,1.2,22.9,4c6.7,2.7,12.5,7.1,16.8,12.8
	c4.5,5.8,7.8,13.2,10,22.2l-5.7-1.2l2.4-4.8c2.3-4.9,5.4-9.3,9.3-13c4.1-4,8.6-7.5,13.5-10.5c4.9-3.1,10.2-5.4,15.7-7.1
	c5.3-1.6,10.8-2.4,16.3-2.4c12,0,22,2.4,30,7.2c8,4.8,14,12.1,18,21.9c4,9.8,6,21.9,6,36.3V442h-37.2v-93c0-8-1.1-14.6-3.1-19.8
	c-1.8-4.8-5.2-8.9-9.6-11.5c-4.3-2.5-9.6-3.8-16-3.8c-4.9,0-9.7,0.8-14.2,2.5c-4.3,1.6-8.2,4-11.5,7.2c-3.2,3-5.7,6.6-7.5,10.6
	c-1.8,4.2-2.8,8.7-2.7,13.2V442h-37.2v-93.3c0-7.6-1.1-13.9-3.3-19c-1.9-4.8-5.3-8.9-9.6-11.7c-4.2-2.7-9.3-4-15.3-4
	c-4.8-0.1-9.6,0.8-14.2,2.5c-4.2,1.6-8.1,4-11.4,7c-3.2,3-5.7,6.5-7.5,10.5c-1.8,4.2-2.8,8.7-2.7,13.2V442H855.2z"/>
<path class="st0" d="M1210.7,445c-16.6,0-31.3-3.5-44-10.5c-12.3-6.6-22.6-16.6-29.7-28.6c-7.1-12.1-10.7-25.9-10.7-41.5
	c-0.2-11.6,1.9-23.1,6-33.9c3.8-9.9,9.4-18.9,16.7-26.6c7.2-7.5,15.9-13.5,25.5-17.4c10.3-4.2,21.4-6.3,32.6-6.2
	c10-0.1,19.9,2,29.1,6c8.8,3.9,16.8,9.4,23.4,16.4c6.7,7.1,11.9,15.4,15.2,24.6c3.6,10,5.3,20.5,5,31l-0.3,12.9h-128.1l-6.9-25.2
	h104.1l-4.8,5.1v-6.6c-0.5-5.9-2.6-11.5-6-16.3c-3.4-4.7-7.8-8.5-13-11.1c-5.4-2.7-11.5-4.1-17.6-4c-9.8,0-18.1,1.9-24.8,5.7
	c-6.6,3.7-11.9,9.4-15.2,16.3c-3.4,7.1-5.1,16-5.1,26.5c0,10.2,2.2,19.1,6.4,26.7c4.2,7.5,10.6,13.6,18.3,17.5
	c7.9,4.1,17.2,6.2,27.8,6.1c7,0.1,13.9-1.1,20.4-3.6c6.2-2.4,12.9-6.7,20.1-12.9l18.3,25.5c-5.5,5.1-11.7,9.4-18.5,12.8
	c-6.9,3.5-14.2,6.3-21.8,8.2C1225.9,444,1218.3,445,1210.7,445z"/>
<path class="st0" d="M1312.4,442V283.9h36l0.6,32.4l-6.9,3.6c2.2-7.5,6.2-14.2,11.7-19.7c5.9-6,13-10.8,20.7-14.2
	c7.7-3.5,16.1-5.4,24.6-5.4c12,0,22.1,2.4,30.2,7.2c8.1,4.8,14.2,12,18.3,21.6c4.1,9.6,6.2,21.6,6.2,36V442h-36.9v-93.9
	c0-8-1.1-14.6-3.3-19.9c-1.9-5-5.5-9.1-10.2-11.7c-4.6-2.5-10.2-3.6-16.8-3.5c-5.1,0-10.1,0.8-14.8,2.5c-8.6,3.2-15.6,9.6-19.5,17.9
	c-1.9,4.1-2.9,8.6-2.8,13.2V442H1312.4L1312.4,442z"/>
<path class="st0" d="M1554.8,445c-12.6,0.1-25-3.6-35.4-10.8c-10.6-7.2-19.1-17-25.5-29.4s-9.6-26.5-9.6-42.3
	c0-15.8,3.2-29.9,9.6-42.3c5.9-11.9,14.9-21.9,26.1-29.1c11.1-7,24-10.7,37.2-10.5c7.4-0.1,14.8,1.1,21.9,3.5
	c6.3,2.2,12.2,5.5,17.4,9.8c4.9,4.1,9.2,9,12.5,14.4c3.3,5.3,5.6,11.2,6.8,17.4l-8.1-2.1v-39.6h37.2V442h-37.5v-37.8l8.7-1.5
	c-1.5,5.7-4.1,11-7.7,15.8c-3.8,5.2-8.5,9.8-13.8,13.5c-5.6,4-11.8,7.1-18.3,9.5C1569.4,443.8,1562.1,445,1554.8,445z M1565,412.3
	c8.1,0.2,16-2,22.8-6.3c6.7-4.3,12-10.4,15.4-17.5c3.7-7.5,5.6-16.2,5.6-26c0-9.6-1.8-18.1-5.6-25.5c-3.4-7.1-8.8-13.1-15.4-17.4
	c-6.8-4.3-14.8-6.5-22.8-6.3c-8-0.2-15.9,2-22.7,6.3c-6.6,4.3-11.8,10.3-15.2,17.4c-3.6,7.4-5.4,15.9-5.4,25.5
	c0,9.8,1.8,18.5,5.4,26c3.3,7.1,8.6,13.2,15.2,17.5C1549.1,410.3,1557,412.5,1565,412.3L1565,412.3z"/>
<path class="st0" d="M1751.3,445c-14,0-26.6-3.5-37.7-10.6c-11.2-7.2-20.3-17.2-26.4-29.1c-6.5-12.3-9.8-26.4-9.8-42.5
	c0-15.8,3.2-29.9,9.6-42.3c6-11.9,15-22,26.2-29.2c17.9-11.1,39.8-13.6,59.7-7c6.8,2.2,13.2,5.5,19,9.8c5.2,3.7,9.8,8.3,13.3,13.6
	c3.2,4.6,5.1,10,5.6,15.6l-9.9,1.2V220h36.9v222h-35.7l-0.9-37.2l7.2,0.6c-0.3,5.2-2.1,10.2-5.2,14.4c-3.6,4.9-7.8,9.1-12.8,12.6
	c-5.5,4-11.7,7.1-18.2,9.1C1765.6,443.8,1758.5,445,1751.3,445z M1758.5,413.8c8.1,0.1,16-2.1,22.8-6.6c6.7-4.5,12-10.7,15.4-18
	c3.7-7.6,5.6-16.4,5.6-26.4c0.2-9.1-1.7-18-5.6-26.2c-3.4-7.3-8.7-13.5-15.4-18c-14-8.6-31.6-8.6-45.6,0c-6.7,4.5-12.1,10.7-15.4,18
	c-3.8,8.2-5.7,17.2-5.6,26.2c0,10,1.8,18.8,5.6,26.4c3.4,7.3,8.8,13.5,15.4,18C1742.5,411.6,1750.4,414,1758.5,413.8z"/>
<path class="st0" d="M1954.1,445c-16.6,0-31.3-3.5-43.9-10.5c-12.3-6.6-22.6-16.5-29.7-28.6c-7.1-12.1-10.7-25.9-10.7-41.5
	c-0.2-11.6,1.9-23.1,6-33.9c3.8-9.9,9.4-18.9,16.7-26.6c7.2-7.5,15.9-13.5,25.5-17.4c10.3-4.2,21.4-6.3,32.6-6.2
	c10-0.1,19.9,2,29.1,6c8.8,3.9,16.8,9.4,23.4,16.4c6.7,7.1,11.9,15.4,15.2,24.6c3.6,10,5.2,20.5,4.9,31l-0.3,12.9h-128.1l-6.9-25.2
	h104.1l-4.8,5.1v-6.6c-0.5-5.9-2.6-11.5-6-16.3c-3.4-4.7-7.8-8.5-13-11.1c-5.4-2.7-11.5-4.1-17.6-4c-9.8,0-18.1,1.9-24.8,5.7
	c-6.6,3.7-11.9,9.4-15.2,16.3c-3.4,7.1-5.1,16-5.1,26.5c0,10.2,2.2,19.1,6.4,26.7c4.2,7.5,10.6,13.6,18.3,17.5
	c7.9,4.1,17.1,6.1,27.7,6.1c7,0.1,13.9-1.1,20.4-3.6c6.2-2.4,12.9-6.7,20.1-12.9l18.3,25.5c-5.5,5.1-11.7,9.4-18.4,12.8
	c-6.9,3.5-14.2,6.3-21.8,8.2C1969.3,444,1961.7,445,1954.1,445z"/>
<g>
	
		<linearGradient id="SVGID_1_" gradientUnits="userSpaceOnUse" x1="112.022" y1="254.4701" x2="293.7967" y2="55.6103" gradientTransform="matrix(1 0 0 -1 0 452)">
		<stop  offset="4.360000e-02" style="stop-color:#DC0023"/>
		<stop  offset="1" style="stop-color:#EDA73E"/>
	</linearGradient>
	<path class="st1" d="M304.1,153.5c0,67.4-43.5,124.7-103.9,145.3v51.1c0,55.3-44.8,100.1-100.1,100.1S0,405.2,0,349.9V133.5
		c0-5,0.4-9.9,1.1-14.6c0,0,0-0.1,0-0.1c3.5-15.2,9.3-29.5,16.9-42.5C44.6,30.6,94,0,150.6,0C235.4,0,304.1,68.7,304.1,153.5z"/>
	
		<linearGradient id="SVGID_2_" gradientUnits="userSpaceOnUse" x1="45.8447" y1="86.5813" x2="225.5219" y2="449.9222" gradientTransform="matrix(1 0 0 -1 0 452)">
		<stop  offset="0" style="stop-color:#EF803D"/>
		<stop  offset="1" style="stop-color:#F52310"/>
	</linearGradient>
	<path class="st2" d="M304.1,153.5c0,67.4-43.5,124.7-103.9,145.3c0,0-31.5,13.8-39.1,17.7c0,0-57.6,27.4-76.6,37
		c-26.8,13.5-36.8,46.7-22.9,73.2c4.9,9.4,12.2,16.7,20.7,21.7C35.5,440,0,399.1,0,349.9V133.5c0-5,0.4-9.9,1.1-14.6
		c0,0,0-0.1,0-0.1c3.5-15.2,9.3-29.5,16.9-42.5C44.6,30.6,94,0,150.6,0C235.4,0,304.1,68.7,304.1,153.5z"/>
</g>
</svg>
