<svg width="390" height="240" viewBox="0 0 390 240" fill="none" xmlns="http://www.w3.org/2000/svg">
<path d="M0 10C0 4.47716 4.47715 0 10 0H380C385.523 0 390 4.47715 390 10V240H0V10Z" fill="url(#paint0_linear)"/>
<g style="mix-blend-mode:multiply" opacity="0.7">
<path d="M239.757 98.7631L245.813 95.257C247.225 95.9698 248.786 96.3411 250.368 96.3411C251.951 96.3411 253.511 95.9698 254.923 95.257L255.379 94.8556L260.738 98.0405C260.028 98.0405 259.346 98.3224 258.843 98.8244C258.341 99.3263 258.059 100.007 258.059 100.717C258.059 101.427 258.341 102.107 258.843 102.609C259.346 103.111 260.028 103.393 260.738 103.393C262.146 104.106 263.702 104.477 265.28 104.477C266.858 104.477 268.414 104.106 269.822 103.393L275.878 106.872C275.167 106.872 274.486 107.154 273.983 107.656C273.481 108.158 273.198 108.839 273.198 109.549C273.198 110.259 273.481 110.939 273.983 111.441C274.486 111.943 275.167 112.225 275.878 112.225C277.282 112.95 278.839 113.329 280.42 113.329C282.001 113.329 283.558 112.95 284.962 112.225L291.018 115.731C290.307 115.731 289.626 116.013 289.123 116.515C288.621 117.017 288.338 117.698 288.338 118.408C288.338 119.117 288.621 119.798 289.123 120.3C289.626 120.802 290.307 121.084 291.018 121.084C292.426 121.796 293.982 122.168 295.56 122.168C297.138 122.168 298.694 121.796 300.102 121.084L306.184 124.59C305.474 124.59 304.792 124.872 304.29 125.374C303.787 125.876 303.505 126.557 303.505 127.266C303.505 127.976 303.787 128.657 304.29 129.159C304.792 129.661 305.474 129.943 306.184 129.943C307.592 130.655 309.148 131.026 310.726 131.026C312.305 131.026 313.861 130.655 315.268 129.943L321.351 133.449C320.64 133.449 319.959 133.731 319.456 134.233C318.954 134.735 318.671 135.415 318.671 136.125C318.671 136.835 318.954 137.516 319.456 138.018C319.959 138.52 320.64 138.801 321.351 138.801C322.759 139.514 324.315 139.885 325.893 139.885C327.471 139.885 329.027 139.514 330.435 138.801L336.518 142.308C335.807 142.308 335.125 142.589 334.623 143.091C334.12 143.593 333.838 144.274 333.838 144.984C333.838 145.694 334.12 146.374 334.623 146.876C335.125 147.378 335.807 147.66 336.518 147.66H336.732L330.837 151.059C329.424 150.347 327.864 149.975 326.282 149.975C324.699 149.975 323.139 150.347 321.726 151.059C321.016 151.059 320.334 151.341 319.831 151.843C319.329 152.345 319.047 153.026 319.047 153.736C319.047 154.445 319.329 155.126 319.831 155.628C320.334 156.13 321.016 156.412 321.726 156.412L315.643 159.918C314.24 159.193 312.682 158.814 311.102 158.814C309.521 158.814 307.964 159.193 306.56 159.918C305.849 159.918 305.167 160.2 304.665 160.702C304.162 161.204 303.88 161.885 303.88 162.594C303.88 163.304 304.162 163.985 304.665 164.487C305.167 164.989 305.849 165.271 306.56 165.271L300.477 168.75C299.069 168.038 297.513 167.666 295.935 167.666C294.357 167.666 292.801 168.038 291.393 168.75C290.682 168.75 290.001 169.032 289.498 169.534C288.996 170.036 288.713 170.717 288.713 171.426C288.713 172.136 288.996 172.817 289.498 173.319C290.001 173.821 290.682 174.103 291.393 174.103L285.31 177.582C283.903 176.87 282.347 176.498 280.768 176.498C279.19 176.498 277.634 176.87 276.226 177.582C275.516 177.582 274.834 177.864 274.332 178.366C273.829 178.868 273.547 179.549 273.547 180.258C273.547 180.968 273.829 181.649 274.332 182.151C274.834 182.653 275.516 182.935 276.226 182.935L270.144 186.441C268.736 185.728 267.18 185.357 265.602 185.357C264.024 185.357 262.468 185.728 261.06 186.441C260.349 186.441 259.668 186.723 259.165 187.225C258.663 187.727 258.38 188.407 258.38 189.117C258.38 189.827 258.663 190.508 259.165 191.01C259.668 191.512 260.349 191.793 261.06 191.793L255.379 194.256C253.971 193.543 252.415 193.172 250.837 193.172C249.259 193.172 247.703 193.543 246.295 194.256C245.584 194.256 244.903 194.538 244.4 195.04C243.898 195.542 243.615 196.222 243.615 196.932C243.615 197.642 243.898 198.323 244.4 198.825C244.903 199.326 245.584 199.608 246.295 199.608L240.212 203.114C238.805 202.402 237.249 202.031 235.67 202.031C234.092 202.031 232.536 202.402 231.129 203.114C230.418 203.114 229.736 203.396 229.234 203.898C228.731 204.4 228.449 205.081 228.449 205.791C228.449 206.501 228.731 207.181 229.234 207.683C229.736 208.185 230.418 208.467 231.129 208.467L225.073 211.973C223.664 211.248 222.102 210.87 220.517 210.87C218.932 210.87 217.371 211.248 215.962 211.973L215.587 212.241L209.826 208.735C210.536 208.735 211.218 208.453 211.72 207.951C212.223 207.449 212.505 206.768 212.505 206.059C212.505 205.349 212.223 204.668 211.72 204.166C211.218 203.664 210.536 203.382 209.826 203.382C208.413 202.669 206.853 202.298 205.27 202.298C203.688 202.298 202.127 202.669 200.715 203.382L194.659 199.876C197.178 198.431 197.178 196.102 194.659 194.523C193.247 193.811 191.686 193.439 190.104 193.439C188.521 193.439 186.961 193.811 185.548 194.523L179.492 191.044C180.203 191.044 180.885 190.762 181.387 190.26C181.89 189.758 182.172 189.078 182.172 188.368C182.172 187.658 181.89 186.977 181.387 186.475C180.885 185.973 180.203 185.691 179.492 185.691C178.078 184.985 176.518 184.617 174.937 184.617C173.356 184.617 171.796 184.985 170.382 185.691L164.326 182.212C166.845 180.74 166.845 178.412 164.326 176.859C162.915 176.14 161.354 175.766 159.77 175.766C158.187 175.766 156.626 176.14 155.215 176.859L149.159 173.353C149.87 173.353 150.551 173.071 151.054 172.569C151.557 172.068 151.839 171.387 151.839 170.677C151.839 169.967 151.557 169.286 151.054 168.785C150.551 168.283 149.87 168.001 149.159 168.001C147.749 167.282 146.188 166.907 144.604 166.907C143.02 166.907 141.459 167.282 140.049 168.001L133.993 164.495C134.703 164.495 135.385 164.213 135.887 163.711C136.39 163.209 136.672 162.528 136.672 161.818C136.672 161.108 136.39 160.428 135.887 159.926C135.385 159.424 134.703 159.142 133.993 159.142L139.62 156.412C141.032 157.125 142.593 157.496 144.175 157.496C145.758 157.496 147.318 157.125 148.73 156.412C151.249 154.94 151.249 152.612 148.73 151.059L154.813 147.553C156.221 148.266 157.777 148.637 159.355 148.637C160.933 148.637 162.489 148.266 163.897 147.553C164.608 147.553 165.289 147.271 165.792 146.769C166.294 146.267 166.577 145.587 166.577 144.877C166.577 144.167 166.294 143.486 165.792 142.984C165.289 142.482 164.608 142.2 163.897 142.2L169.98 138.694C171.388 139.407 172.944 139.778 174.522 139.778C176.1 139.778 177.656 139.407 179.064 138.694C179.774 138.694 180.456 138.412 180.958 137.911C181.461 137.409 181.743 136.728 181.743 136.018C181.743 135.308 181.461 134.628 180.958 134.126C180.456 133.624 179.774 133.342 179.064 133.342L185.146 129.836C186.554 130.548 188.11 130.919 189.688 130.919C191.266 130.919 192.822 130.548 194.23 129.836C194.941 129.836 195.623 129.554 196.125 129.052C196.628 128.55 196.91 127.869 196.91 127.159C196.91 126.45 196.628 125.769 196.125 125.267C195.623 124.765 194.941 124.483 194.23 124.483L200.313 120.977C201.719 121.696 203.276 122.07 204.855 122.07C206.434 122.07 207.991 121.696 209.397 120.977C211.916 119.532 211.916 117.203 209.397 115.624L215.48 112.145C216.887 112.857 218.443 113.229 220.022 113.229C221.6 113.229 223.156 112.857 224.563 112.145C225.274 112.145 225.956 111.863 226.458 111.361C226.961 110.859 227.243 110.178 227.243 109.469C227.243 108.759 226.961 108.078 226.458 107.576C225.956 107.074 225.274 106.792 224.563 106.792L230.619 103.286C232.027 103.999 233.583 104.37 235.161 104.37C236.739 104.37 238.296 103.999 239.703 103.286C242.249 102.537 242.249 100.208 239.757 98.7631Z" fill="#BFBFBF"/>
</g>
<path d="M141.308 165.752L142.782 164.896C142.338 165.216 141.986 165.646 141.76 166.143C141.535 166.641 141.443 167.189 141.495 167.733L140.022 168.589C139.97 168.046 140.061 167.498 140.287 167C140.512 166.502 140.864 166.072 141.308 165.752Z" fill="#9EB1BF"/>
<path d="M130.08 150.417L131.554 149.56C132.002 149.896 132.533 150.103 133.09 150.16C133.648 150.216 134.21 150.12 134.716 149.882L133.242 150.738C132.736 150.976 132.174 151.073 131.617 151.016C131.06 150.959 130.528 150.752 130.08 150.417Z" fill="#9EB1BF"/>
<path d="M156.233 174.317L157.707 173.46C157.259 173.777 156.901 174.206 156.671 174.704C156.441 175.201 156.345 175.751 156.394 176.297L154.92 177.154C154.866 176.607 154.959 176.055 155.19 175.556C155.42 175.058 155.781 174.629 156.233 174.317Z" fill="#9EB1BF"/>
<path d="M130.107 133.368L131.581 132.512C132.034 132.847 132.57 133.054 133.131 133.11C133.692 133.167 134.258 133.071 134.77 132.833L133.296 133.69C132.785 133.928 132.219 134.023 131.657 133.967C131.096 133.91 130.561 133.704 130.107 133.368Z" fill="#9EB1BF"/>
<path d="M171.025 182.881L172.499 182.025C172.049 182.339 171.692 182.768 171.466 183.267C171.24 183.766 171.152 184.317 171.212 184.862L169.631 185.852C169.571 185.307 169.659 184.756 169.885 184.257C170.111 183.758 170.468 183.329 170.918 183.015L171.025 182.881Z" fill="#9EB1BF"/>
<path d="M130.161 116.266L131.635 115.41C132.088 115.745 132.624 115.952 133.185 116.008C133.746 116.065 134.312 115.969 134.823 115.731L133.35 116.588C132.838 116.826 132.272 116.921 131.711 116.865C131.15 116.808 130.614 116.602 130.161 116.266Z" fill="#9EB1BF"/>
<path d="M185.87 191.446L187.344 190.589C186.9 190.909 186.548 191.339 186.322 191.837C186.097 192.334 186.005 192.882 186.057 193.426L184.584 194.282C184.532 193.739 184.623 193.191 184.849 192.693C185.074 192.195 185.426 191.765 185.87 191.446Z" fill="#9EB1BF"/>
<path d="M130.214 99.2716L131.688 98.4152C132.142 98.7502 132.677 98.9569 133.238 99.0134C133.8 99.07 134.366 98.9742 134.877 98.7363L133.403 99.5928C132.892 99.8307 132.326 99.9264 131.765 99.8699C131.203 99.8134 130.668 99.6067 130.214 99.2716Z" fill="#9EB1BF"/>
<path d="M200.742 200.01L202.215 199.153C201.767 199.47 201.41 199.899 201.179 200.397C200.949 200.894 200.853 201.444 200.903 201.99L199.429 202.874C199.372 202.323 199.464 201.767 199.695 201.263C199.925 200.76 200.287 200.327 200.742 200.01Z" fill="#9EB1BF"/>
<path d="M130.268 82.2231L131.742 81.3667C132.195 81.7018 132.731 81.9085 133.292 81.965C133.853 82.0215 134.419 81.9258 134.93 81.6878L133.43 82.5443C132.923 82.7827 132.361 82.8788 131.804 82.8222C131.247 82.7657 130.716 82.5585 130.268 82.2231Z" fill="#9EB1BF"/>
<path d="M215.587 208.574L217.061 207.718C216.609 208.036 216.251 208.47 216.024 208.974C215.798 209.477 215.712 210.033 215.774 210.582L214.301 211.438C214.238 210.889 214.324 210.334 214.551 209.83C214.777 209.326 215.135 208.892 215.587 208.574Z" fill="#9EB1BF"/>
<path d="M141.951 156.037L143.452 155.181L208.379 192.65L206.905 193.506L141.951 156.037Z" fill="#D1DCE6"/>
<path d="M130.322 65.1747L131.795 64.3182C132.243 64.6537 132.775 64.8608 133.332 64.9174C133.889 64.974 134.451 64.8779 134.957 64.6394L133.483 65.4958C132.977 65.7343 132.415 65.8304 131.858 65.7738C131.301 65.7172 130.77 65.5101 130.322 65.1747Z" fill="#9EB1BF"/>
<path d="M218.776 202.499L220.249 201.642V208.012L218.749 208.869L218.776 202.499Z" fill="#D1DCE6"/>
<path d="M215.64 191.981L217.114 191.124C216.666 191.441 216.308 191.87 216.078 192.368C215.848 192.865 215.752 193.415 215.801 193.961C215.91 195.908 216.611 197.776 217.811 199.314L216.337 200.171C215.137 198.632 214.436 196.765 214.327 194.818C214.278 194.271 214.374 193.722 214.604 193.224C214.835 192.726 215.192 192.297 215.64 191.981Z" fill="#9EB1BF"/>
<path d="M216.337 200.251L217.811 199.394L218.32 200.037L216.846 200.893L216.337 200.251Z" fill="#9EB1BF"/>
<path d="M216.846 200.893L218.32 200.037C218.878 200.666 219.529 201.208 220.249 201.643L218.775 202.499C218.055 202.064 217.404 201.523 216.846 200.893Z" fill="#9EB1BF"/>
<path d="M130.348 48.1263L131.822 47.2698C132.276 47.6049 132.811 47.8116 133.372 47.8681C133.933 47.9246 134.5 47.8289 135.011 47.591L133.537 48.4474C133.026 48.6854 132.46 48.7811 131.898 48.7246C131.337 48.668 130.802 48.4613 130.348 48.1263Z" fill="#9EB1BF"/>
<path d="M218.829 185.451L220.303 184.594L220.276 191.419L218.802 192.275L218.829 185.451Z" fill="#D1DCE6"/>
<path d="M215.694 174.932L217.168 174.076C216.715 174.389 216.355 174.817 216.124 175.316C215.893 175.814 215.8 176.366 215.855 176.913C215.964 178.86 216.665 180.727 217.864 182.266L216.391 183.122C215.191 181.584 214.49 179.716 214.381 177.769C214.326 177.222 214.419 176.671 214.65 176.172C214.881 175.673 215.241 175.245 215.694 174.932Z" fill="#9EB1BF"/>
<path d="M216.391 183.176L217.864 182.319L218.374 182.961L216.9 183.818L216.391 183.176Z" fill="#9EB1BF"/>
<path d="M216.9 183.845L218.374 182.988C218.932 183.618 219.582 184.159 220.303 184.594L218.829 185.45C218.108 185.016 217.458 184.474 216.9 183.845Z" fill="#9EB1BF"/>
<path d="M142.273 46.681L143.746 45.8246L143.452 155.181L141.951 156.037L142.273 46.681Z" fill="#D1DCE6"/>
<path d="M130.402 31.2651L131.876 30.4087C132.355 30.7728 132.924 31.0021 133.522 31.0727C134.121 31.1433 134.727 31.0527 135.279 30.8102L133.805 31.6666C133.254 31.9091 132.647 31.9997 132.049 31.9291C131.45 31.8585 130.882 31.6293 130.402 31.2651Z" fill="#9EB1BF"/>
<path d="M142.273 46.681L141.951 156.037L206.905 193.506L207.226 84.1234L142.273 46.681Z" fill="url(#paint1_linear)"/>
<path d="M218.883 168.402L220.356 167.546L220.33 174.37L218.856 175.227L218.883 168.402Z" fill="#D1DCE6"/>
<path d="M135.091 28.8564L136.565 28L142.487 31.4257L141.013 32.2822L135.091 28.8564Z" fill="#D1DCE6"/>
<path d="M215.721 157.857L217.221 157.001C216.771 157.322 216.412 157.755 216.182 158.257C215.952 158.76 215.857 159.314 215.908 159.864C216.017 161.811 216.718 163.679 217.918 165.217L216.417 166.074C215.224 164.534 214.532 162.666 214.435 160.721C214.386 160.174 214.478 159.623 214.704 159.121C214.929 158.62 215.279 158.185 215.721 157.857Z" fill="#9EB1BF"/>
<path d="M216.417 166.154L217.918 165.297L218.427 165.94L216.953 166.796L216.417 166.154Z" fill="#9EB1BF"/>
<path d="M216.953 166.796L218.427 165.94C218.985 166.569 219.636 167.111 220.356 167.546L218.883 168.402C218.162 167.967 217.512 167.426 216.953 166.796Z" fill="#9EB1BF"/>
<path d="M141.013 32.2821L142.487 31.4257C142.598 33.3677 143.289 35.2319 144.47 36.7784L142.996 37.6349C141.803 36.0949 141.111 34.2268 141.013 32.2821Z" fill="#9EB1BF"/>
<path d="M142.996 37.7152L144.47 36.8588L145.006 37.5011L143.532 38.3575L142.996 37.7152Z" fill="#9EB1BF"/>
<path d="M143.532 38.3575L145.006 37.501C145.564 38.1306 146.214 38.672 146.935 39.1068C147.387 39.4344 147.917 39.6367 148.473 39.6931C149.028 39.7495 149.589 39.658 150.097 39.428L148.623 40.2844C148.115 40.5144 147.554 40.6059 146.999 40.5495C146.444 40.4931 145.913 40.2908 145.461 39.9633C144.741 39.5284 144.09 38.987 143.532 38.3575Z" fill="#9EB1BF"/>
<path d="M218.936 151.354L220.41 150.497L220.383 157.295L218.91 158.152L218.936 151.354Z" fill="#D1DCE6"/>
<path d="M149.936 37.4208L151.41 36.5644L157.359 39.9901L155.885 40.8466L149.936 37.4208Z" fill="#D1DCE6"/>
<path d="M215.774 140.809L217.248 139.952C216.806 140.28 216.456 140.715 216.231 141.217C216.006 141.718 215.913 142.269 215.962 142.816C216.06 144.761 216.752 146.629 217.945 148.169L216.471 149.025C215.278 147.485 214.586 145.617 214.488 143.672C214.431 143.124 214.52 142.571 214.746 142.068C214.972 141.565 215.327 141.131 215.774 140.809Z" fill="#9EB1BF"/>
<path d="M216.471 149.105L217.864 148.383L218.4 149.025L216.927 149.882L216.391 149.239L216.471 149.105Z" fill="#9EB1BF"/>
<path d="M217.007 149.748L218.481 148.891C219.029 149.52 219.671 150.062 220.383 150.497L218.91 151.354C218.197 150.918 217.556 150.377 217.007 149.748Z" fill="#9EB1BF"/>
<path d="M155.885 40.8466L157.359 39.9901C157.457 41.9348 158.149 43.8029 159.342 45.3428L157.868 46.1993C156.675 44.6593 155.983 42.7913 155.885 40.8466Z" fill="#9EB1BF"/>
<path d="M157.868 46.2796L159.342 45.4231L159.851 46.0654L158.377 46.9219L157.868 46.2796Z" fill="#9EB1BF"/>
<path d="M158.377 46.9218L159.851 46.0654C160.408 46.6965 161.058 47.2381 161.78 47.6712C162.236 48.0011 162.771 48.2046 163.331 48.261C163.891 48.3174 164.456 48.2248 164.969 47.9924L163.468 48.8488C162.96 49.0788 162.399 49.1703 161.844 49.1139C161.289 49.0575 160.758 48.8552 160.306 48.5277C159.585 48.0945 158.934 47.5529 158.377 46.9218Z" fill="#9EB1BF"/>
<path d="M218.963 134.305L220.437 133.449V140.273L218.963 141.13V134.305Z" fill="#D1DCE6"/>
<path d="M164.781 45.9852L166.255 45.1287L172.204 48.5545L170.73 49.4109L164.781 45.9852Z" fill="#D1DCE6"/>
<path d="M215.828 123.76L217.302 122.904C216.852 123.224 216.496 123.658 216.27 124.161C216.044 124.665 215.956 125.219 216.016 125.768C216.113 127.712 216.805 129.58 217.998 131.12L216.525 131.977C215.321 130.443 214.627 128.571 214.542 126.624C214.485 126.076 214.574 125.522 214.8 125.02C215.026 124.517 215.38 124.082 215.828 123.76Z" fill="#9EB1BF"/>
<path d="M216.525 132.057L217.998 131.201L218.534 131.843L217.034 132.699L216.525 132.057Z" fill="#9EB1BF"/>
<path d="M217.034 132.699L218.534 131.843C219.083 132.472 219.724 133.013 220.437 133.449L218.963 134.305C218.247 133.863 217.598 133.323 217.034 132.699Z" fill="#9EB1BF"/>
<path d="M170.73 49.3574L172.204 48.5009C172.302 50.4456 172.994 52.3137 174.187 53.8536L172.713 54.7101C171.52 53.1701 170.828 51.3021 170.73 49.3574Z" fill="#9EB1BF"/>
<path d="M172.713 54.8439L174.187 53.9874L174.723 54.6298L173.249 55.4862L172.713 54.8439Z" fill="#9EB1BF"/>
<path d="M173.249 55.4862L174.723 54.6298C175.274 55.2667 175.925 55.8092 176.652 56.2357C177.1 56.5711 177.631 56.7782 178.188 56.8348C178.745 56.8914 179.307 56.7953 179.814 56.5568L178.34 57.4132C177.834 57.6517 177.272 57.7478 176.715 57.6912C176.157 57.6346 175.626 57.4275 175.178 57.0921C174.447 56.6728 173.794 56.1294 173.249 55.4862Z" fill="#9EB1BF"/>
<path d="M219.017 117.257L220.49 116.4V123.225L219.017 124.081V117.257Z" fill="#D1DCE6"/>
<path d="M179.626 54.5496L181.127 53.6931L187.076 57.1189L185.602 57.9753L179.626 54.5496Z" fill="#D1DCE6"/>
<path d="M215.882 106.712L217.355 105.855C216.903 106.174 216.546 106.607 216.319 107.111C216.093 107.615 216.006 108.17 216.069 108.719C216.155 110.666 216.848 112.538 218.052 114.072L216.578 114.928C215.379 113.39 214.677 111.522 214.568 109.576C214.517 109.025 214.612 108.471 214.842 107.969C215.072 107.466 215.431 107.033 215.882 106.712Z" fill="#9EB1BF"/>
<path d="M216.578 115.009L218.052 114.152L218.561 114.794L217.087 115.651L216.578 115.009Z" fill="#9EB1BF"/>
<path d="M217.087 115.651L218.561 114.794C219.112 115.431 219.764 115.974 220.49 116.4L219.017 117.257C218.29 116.83 217.638 116.288 217.087 115.651Z" fill="#9EB1BF"/>
<path d="M185.709 58.002L187.183 57.1456C187.29 59.0929 187.991 60.9608 189.193 62.4984L187.719 63.3548C186.518 61.8172 185.816 59.9493 185.709 58.002Z" fill="#9EB1BF"/>
<path d="M187.585 63.4083L189.059 62.5519L189.568 63.1942L188.094 64.0507L187.585 63.4083Z" fill="#9EB1BF"/>
<path d="M188.094 64.0507L189.568 63.1942C190.111 63.8385 190.765 64.3821 191.497 64.8C191.945 65.1355 192.476 65.3426 193.033 65.3992C193.59 65.4558 194.152 65.3597 194.659 65.1212L193.185 65.9777C192.679 66.2161 192.117 66.3122 191.56 66.2556C191.003 66.199 190.471 65.9919 190.023 65.6565C189.291 65.2385 188.638 64.695 188.094 64.0507Z" fill="#9EB1BF"/>
<path d="M142.273 46.681L143.746 45.8246L208.7 83.2669L207.226 84.1233L142.273 46.681Z" fill="#8595A5"/>
<path d="M207.226 84.1233L208.7 83.2669L208.379 192.65L206.905 193.506L207.226 84.1233Z" fill="#758391"/>
<path d="M219.07 100.208L220.544 99.3519L220.517 106.15L219.043 107.006L219.07 100.208Z" fill="#D1DCE6"/>
<path d="M194.498 63.1139L195.972 62.2574L201.921 65.6832L200.447 66.5396L194.498 63.1139Z" fill="#D1DCE6"/>
<path d="M215.935 89.6634L217.409 88.807C216.954 89.124 216.593 89.5567 216.362 90.0602C216.131 90.5637 216.039 91.1198 216.096 91.6707C216.208 93.6169 216.909 95.4833 218.106 97.0234L216.632 97.8799C215.435 96.3398 214.734 94.4734 214.622 92.5272C214.565 91.9762 214.657 91.4202 214.888 90.9166C215.119 90.4131 215.48 89.9804 215.935 89.6634Z" fill="#9EB1BF"/>
<path d="M216.632 97.9602L218.106 97.1038L218.615 97.7461L217.141 98.6025L216.632 97.9602Z" fill="#9EB1BF"/>
<path d="M217.141 98.6024L218.615 97.746C219.173 98.3756 219.823 98.917 220.544 99.3518L219.07 100.208C218.35 99.7734 217.699 99.232 217.141 98.6024Z" fill="#9EB1BF"/>
<path d="M200.447 66.5664L201.921 65.71C202.019 67.6547 202.711 69.5227 203.904 71.0627L202.43 71.9191C201.237 70.3791 200.545 68.5111 200.447 66.5664Z" fill="#9EB1BF"/>
<path d="M202.43 71.9726L203.904 71.1162C204.064 71.3571 204.252 71.5444 204.413 71.7585L202.939 72.615L202.43 71.9726Z" fill="#9EB1BF"/>
<path d="M202.939 72.6149L204.413 71.7585C204.962 72.3968 205.614 72.9395 206.342 73.3643C206.798 73.6942 207.333 73.8977 207.893 73.9541C208.453 74.0105 209.018 73.9178 209.531 73.6855L208.057 74.5419C207.546 74.7798 206.98 74.8756 206.419 74.8191C205.857 74.7625 205.322 74.5558 204.868 74.2207C204.141 73.7959 203.489 73.2532 202.939 72.6149Z" fill="#9EB1BF"/>
<path d="M219.124 83.1598L220.598 82.3034L220.571 89.1281L219.097 89.9846L219.124 83.1598Z" fill="#D1DCE6"/>
<path d="M214.756 74.8096L216.23 73.9532C216.215 74.176 216.215 74.3995 216.23 74.6223C216.347 76.5675 217.047 78.4325 218.24 79.975L216.766 80.8314C215.574 79.2889 214.873 77.4239 214.756 75.4787C214.741 75.2559 214.741 75.0324 214.756 74.8096Z" fill="#9EB1BF"/>
<path d="M216.685 80.9117L218.159 80.0553L218.668 80.6976L217.195 81.5541L216.685 80.9117Z" fill="#9EB1BF"/>
<path d="M217.195 81.4738L218.668 80.6173C219.219 81.2542 219.871 81.7967 220.598 82.2231L219.124 83.0796C218.397 82.6531 217.746 82.1107 217.195 81.4738Z" fill="#9EB1BF"/>
<path d="M219.097 89.9845C216.632 88.5661 214.649 89.6902 214.622 92.5271C214.708 94.0663 215.156 95.5636 215.928 96.898C216.701 98.2324 217.777 99.3664 219.07 100.208V107.033C216.605 105.615 214.622 106.739 214.595 109.576C214.681 111.115 215.129 112.612 215.901 113.946C216.674 115.281 217.751 116.415 219.043 117.257V124.081C216.578 122.663 214.595 123.787 214.595 126.758C214.67 128.297 215.11 129.796 215.878 131.131C216.647 132.467 217.723 133.6 219.017 134.439V141.264C216.551 139.845 214.542 140.969 214.542 143.94C214.627 145.476 215.071 146.971 215.839 148.305C216.607 149.639 217.677 150.775 218.963 151.621V158.446C216.498 157.027 214.488 158.152 214.488 161.122C214.574 162.661 215.022 164.159 215.794 165.493C216.567 166.828 217.643 167.962 218.936 168.803V175.146C216.471 173.728 214.461 174.879 214.461 177.689C214.547 179.228 214.995 180.725 215.767 182.06C216.54 183.394 217.617 184.528 218.91 185.37V192.195C216.444 190.776 214.461 191.927 214.435 194.737C214.52 196.277 214.968 197.774 215.741 199.108C216.513 200.443 217.59 201.577 218.883 202.419V208.815C216.444 207.397 214.435 208.521 214.435 211.358L208.486 207.932C208.404 206.392 207.958 204.893 207.185 203.558C206.412 202.223 205.334 201.089 204.038 200.251C201.572 198.832 199.59 199.956 199.563 202.927L193.641 199.501C193.553 197.959 193.105 196.459 192.332 195.12C191.56 193.782 190.485 192.643 189.193 191.793C186.727 190.375 184.718 191.526 184.718 194.47L178.769 191.071C178.709 189.481 178.259 187.93 177.461 186.554C176.662 185.178 175.538 184.018 174.187 183.176C171.748 181.757 169.739 182.908 169.739 185.718L163.79 182.319C163.708 180.775 163.263 179.273 162.49 177.933C161.717 176.594 160.638 175.456 159.342 174.611C156.876 173.193 154.894 174.344 154.867 177.154L148.918 173.728C148.837 172.191 148.395 170.694 147.627 169.36C146.858 168.025 145.786 166.89 144.497 166.047C142.031 164.628 140.022 165.779 140.022 168.723L134.448 165.512C134.448 165.512 134.448 165.244 134.448 165.083C134.364 163.54 133.918 162.038 133.145 160.699C132.372 159.36 131.295 158.221 130 157.375V150.551C132.465 151.996 134.448 150.845 134.475 148.035C134.391 146.492 133.945 144.99 133.172 143.651C132.399 142.312 131.322 141.173 130.027 140.327V133.502C132.519 134.947 134.502 133.797 134.529 130.986C134.444 129.44 133.994 127.936 133.216 126.597C132.439 125.257 131.355 124.12 130.054 123.279V116.266C132.519 117.712 134.529 116.561 134.529 113.751C134.455 112.205 134.013 110.699 133.24 109.358C132.466 108.018 131.383 106.881 130.08 106.043V99.218C132.546 100.663 134.555 99.5124 134.555 96.7022C134.474 95.1585 134.028 93.6558 133.255 92.3164C132.482 90.9771 131.404 89.8388 130.107 88.9943V82.1696C132.572 83.6148 134.582 82.464 134.582 79.6538C134.5 78.1101 134.055 76.6073 133.282 75.268C132.509 73.9286 131.43 72.7904 130.134 71.9459V65.1211C132.599 66.5664 134.582 65.4156 134.609 62.5786C134.523 61.0395 134.076 59.5421 133.303 58.2077C132.53 56.8733 131.454 55.7393 130.161 54.8975V48.0727C132.653 49.518 134.636 48.3671 134.662 45.5302C134.576 43.9845 134.125 42.4811 133.348 41.1419C132.57 39.8027 131.487 38.6654 130.188 37.8222V31.2116C132.867 32.7639 134.85 31.6399 134.85 28.8029L140.799 32.2287C140.881 33.7688 141.326 35.2677 142.099 36.6028C142.872 37.9378 143.951 39.0711 145.247 39.9098C147.712 41.3283 149.695 40.2042 149.722 37.2334L155.671 40.6592C155.747 42.1974 156.188 43.6956 156.956 45.0309C157.725 46.3661 158.8 47.5002 160.092 48.3403C162.557 49.7588 164.567 48.6347 164.567 45.7978L170.516 49.2503C170.602 50.7858 171.049 52.2794 171.822 53.6095C172.595 54.9396 173.671 56.0686 174.964 56.9047C177.402 58.3232 179.412 57.1991 179.412 54.3622L185.361 57.8147C185.447 59.3502 185.894 60.8438 186.667 62.1739C187.44 63.504 188.517 64.633 189.809 65.4691C192.274 66.8876 194.257 65.7635 194.284 62.7927L200.233 66.2452C200.313 67.7788 200.756 69.2717 201.524 70.6019C202.293 71.9322 203.365 73.0621 204.654 73.8996C207.119 75.3181 209.129 74.194 209.129 71.3571L214.488 74.4884C214.473 74.7112 214.473 74.9347 214.488 75.1575C214.574 76.6967 215.022 78.194 215.794 79.5284C216.567 80.8628 217.643 81.9968 218.936 82.8387L219.097 89.9845ZM206.905 193.506L207.146 84.1501L142.192 46.681L141.871 156.064L206.824 193.533L206.905 193.506Z" fill="#EAEBEE"/>
<path d="M209.343 71.6783L210.817 70.8218L216.23 73.9532L214.756 74.8096L209.343 71.6783Z" fill="#D1DCE6"/>
<path d="M181.502 146.777C181.646 146.866 181.763 146.993 181.838 147.144C181.914 147.296 181.946 147.465 181.931 147.633C181.877 147.849 181.776 148.05 181.636 148.222L181.288 148.543C181.288 149.132 181.127 150.015 180.591 149.721V149.427C180.591 149.213 180.805 149.132 180.832 148.891C180.652 148.975 180.455 149.019 180.256 149.019C180.057 149.019 179.86 148.975 179.68 148.891C179.538 148.817 179.411 148.717 179.305 148.597V148.356H179.439C179.561 148.427 179.7 148.464 179.841 148.464C179.982 148.464 180.12 148.427 180.243 148.356C180.073 148.307 179.91 148.235 179.76 148.142C179.544 148.029 179.353 147.875 179.198 147.687V147.446C179.475 147.489 179.746 147.57 180.002 147.687C180.206 147.714 180.413 147.714 180.618 147.687H180.966C181.085 147.461 181.193 147.228 181.288 146.991C181.181 146.697 181.341 146.67 181.502 146.777Z" fill="#393C41"/>
<path d="M184.557 149.186C184.502 149.336 184.43 149.48 184.342 149.614C184.342 150.417 184.342 151.166 183.914 151.461L183.699 151.193C183.715 150.899 183.715 150.604 183.699 150.31C183.546 150.469 183.356 150.589 183.146 150.659C182.936 150.729 182.712 150.747 182.494 150.711L182.36 150.417C182.506 150.316 182.64 150.199 182.761 150.069L182.413 149.908L181.958 149.587C181.824 149.587 181.824 149.186 181.958 149.239C182.452 149.367 182.976 149.31 183.431 149.079L184.557 149.186Z" fill="#393C41"/>
<path d="M197.339 120.468C198.739 121.26 199.91 122.401 200.737 123.781C201.564 125.16 202.018 126.73 202.055 128.337C202.081 129.008 201.99 129.678 201.787 130.317C201.694 130.738 201.487 131.125 201.19 131.436C200.892 131.748 200.515 131.972 200.099 132.084C198.759 132.325 197.231 131.067 196.347 137.597C195.329 145.492 192.917 150.711 184.798 149.239H184.557L183.565 148.998C182.91 148.792 182.266 148.55 181.636 148.276C181.776 148.103 181.877 147.902 181.931 147.687C181.946 147.519 181.914 147.349 181.838 147.198C181.763 147.047 181.646 146.919 181.502 146.831C181.341 146.831 181.181 146.831 181.127 146.831C181.032 147.068 180.925 147.3 180.805 147.526H180.457L179.466 146.991C176.511 145.243 173.889 142.987 171.722 140.327C172.059 139.646 172.435 138.985 172.847 138.346C173.04 138.037 173.168 137.69 173.222 137.329V137.062C173.287 136.609 173.287 136.15 173.222 135.697C172.821 133.879 171.889 132.221 170.542 130.933L169.631 129.648V129.434C170.65 130.103 171.561 130.665 172.311 131.12C176.893 133.797 178.26 133.181 180.136 132.699C181.501 132.045 182.633 130.989 183.38 129.674C184.127 128.358 184.454 126.846 184.316 125.339C186.035 125.21 187.69 124.628 189.112 123.653C189.476 123.388 189.816 123.092 190.13 122.77C193.132 119.478 194.927 119.157 197.151 120.308L197.339 120.468ZM199.536 126.115C199.562 125.789 199.511 125.461 199.385 125.158C199.259 124.856 199.063 124.588 198.812 124.376C198.745 124.305 198.663 124.25 198.571 124.215C198.142 123.948 197.741 124.081 197.66 124.536C197.624 124.865 197.668 125.198 197.789 125.506C197.911 125.814 198.106 126.087 198.357 126.303L198.571 126.437C199.027 126.704 199.429 126.437 199.536 126.115Z" fill="white"/>
<path d="M167.702 128.069L168.506 128.712C168.131 128.567 167.746 128.451 167.354 128.364L167.702 128.069Z" fill="white"/>
<path d="M168.506 128.738L169.444 129.407V129.622L170.355 130.96C171.701 132.247 172.634 133.906 173.035 135.724C173.099 136.176 173.099 136.636 173.035 137.089V137.356C172.98 137.717 172.853 138.063 172.659 138.373C172.247 139.012 171.871 139.673 171.534 140.354L171.132 141.21C170.703 142.522 171.588 153.816 166.496 157.268C166.068 157.536 165.371 157.268 164.594 156.894C162.718 155.823 160.387 153.147 160.601 151.086C159.982 151.05 159.383 150.856 158.859 150.524C158.108 150.089 157.444 149.517 156.903 148.838C155.947 147.545 155.322 146.038 155.081 144.449C154.218 143.897 153.386 143.299 152.589 142.655C151.535 141.793 150.754 140.644 150.34 139.347C149.926 138.05 149.898 136.662 150.258 135.349C151 133.054 152.528 131.093 154.572 129.809C155.898 129.028 157.322 128.425 158.806 128.016C161.566 127.408 164.431 127.463 167.166 128.176C167.629 128.323 168.077 128.511 168.506 128.738Z" fill="white"/>
<path d="M156.689 88.5126C157.627 89.0478 158.538 89.6366 159.369 90.2254C160.199 90.8142 165.264 94.3203 167.729 96.274C168.158 96.5952 168.506 96.8896 168.774 97.1305C173.678 101.264 177.697 106.344 180.591 112.065C182.826 116.131 184.049 120.675 184.155 125.313C184.293 126.819 183.967 128.331 183.219 129.647C182.472 130.962 181.34 132.018 179.975 132.673C178.099 133.154 176.732 133.743 172.15 131.093C171.373 130.639 170.462 130.076 169.471 129.407C169.144 129.195 168.831 128.963 168.533 128.712L167.729 128.069C162.664 123.787 154.679 113.858 155.215 104.303C154.359 103.439 153.596 102.488 152.937 101.466C151.641 99.5549 150.502 97.5409 149.534 95.4443C147.475 92.3532 145.81 89.0177 144.577 85.515C144.577 85.2741 144.122 84.3642 144.577 84.3642C148.877 84.8101 153.02 86.2288 156.689 88.5126Z" fill="#FAFBFD"/>
<path d="M167.622 84.5783C171.717 87.6775 175.283 91.4195 178.179 95.6585C178.956 96.7826 182.735 102.269 183.539 103.928C186.157 108.279 187.904 113.097 188.683 118.113C188.967 119.937 189.03 121.788 188.871 123.626C187.449 124.601 185.794 125.183 184.075 125.313C183.968 120.675 182.746 116.131 180.511 112.065C177.617 106.344 173.598 101.264 168.694 97.1305C168.426 96.8896 168.077 96.5952 167.649 96.274C167.366 94.8558 167.24 93.4108 167.273 91.9651C166.807 89.687 166.807 87.3382 167.273 85.0601C167.3 84.9263 167.327 84.391 167.622 84.5783Z" fill="#DCDCDC"/>
<path d="M202.055 128.337L204.091 130.505L201.787 130.317C201.99 129.678 202.081 129.008 202.055 128.337Z" fill="#231F20"/>
<path d="M198.812 124.296C198.745 124.224 198.663 124.17 198.571 124.135C198.142 123.867 197.741 124.001 197.66 124.456C197.624 124.785 197.668 125.118 197.79 125.426C197.911 125.733 198.106 126.007 198.357 126.223L198.571 126.356C199.027 126.624 199.429 126.356 199.536 126.035C199.562 125.709 199.511 125.381 199.385 125.078C199.259 124.775 199.063 124.507 198.812 124.296ZM198.812 125.072C198.812 125.072 198.973 124.911 199.107 125.072C199.241 125.232 198.812 125.018 198.786 125.152L198.812 125.072Z" fill="#231F20"/>
<defs>
<linearGradient id="paint0_linear" x1="-18" y1="9.228e-06" x2="405" y2="257" gradientUnits="userSpaceOnUse">
<stop stop-color="#1163DD"/>
<stop offset="1" stop-color="#D911DD"/>
</linearGradient>
<linearGradient id="paint1_linear" x1="174.589" y1="46.681" x2="174.589" y2="193.506" gradientUnits="userSpaceOnUse">
<stop stop-color="#54ABEE"/>
<stop offset="1" stop-color="#54ABEE" stop-opacity="0"/>
</linearGradient>
</defs>
</svg>
