<svg width="390" height="240" viewBox="0 0 390 240" fill="none" xmlns="http://www.w3.org/2000/svg">
<path d="M0 10C0 4.47716 4.47715 0 10 0H380C385.523 0 390 4.47715 390 10V240H0V10Z" fill="url(#paint0_linear)"/>
<path d="M335.482 118.133L195.133 198.563V224L335.482 143.578V118.133Z" fill="#0D5E73"/>
<path d="M55 117.375L195.133 198.563V224L55 142.821V117.375Z" fill="#379ABA"/>
<path d="M252.78 165.762V191.199L335.482 143.57V118.133L252.78 165.762Z" fill="#96C5E0"/>
<path d="M335.457 118.133L194.692 37.2532L55 117.425L195.133 198.546V198.538V198.546L335.457 118.133Z" fill="#4FBBE1"/>
<path d="M137.943 101.066L122.15 92.005V83.3845L137.943 92.5125V101.066Z" fill="#2C89A5"/>
<path d="M141.03 98.8697V108.98L144.85 111.168V101.075L141.03 98.8697Z" fill="#2C89A5"/>
<path d="M137.877 101.066L153.67 92.005V83.3845L137.877 92.5125V101.066Z" fill="#166A81"/>
<path d="M224.814 161.926L220.254 159.388V148.695L224.814 151.308V161.926Z" fill="#2C89A5"/>
<path d="M253.845 164.963L243.536 159.388V148.695L253.845 154.345V164.963Z" fill="#2C89A5"/>
<path d="M224.789 161.926L243.627 151.991V141.298L224.789 151.308V161.926Z" fill="#166A81"/>
<path d="M203.729 130.231V140.94L213.88 146.765V136.106L203.729 130.231Z" fill="#2C89A5"/>
<path d="M144.874 111.235L153.67 106.134V99.9681L144.874 105.135V111.235Z" fill="#166A81"/>
<path d="M189.508 139.726L207.148 129.458V121.727L189.508 132.062V139.726Z" fill="#166A81"/>
<path d="M105.616 101.915L122.15 92.1131V85.9473L105.616 88.6683V101.915Z" fill="#166A81"/>
<path d="M181.42 121.794L153.803 106.101V97.738L181.42 111.792V121.794Z" fill="#2C89A5"/>
<path d="M189.508 139.726L172.825 130.381V126.903L189.508 131.43V139.726Z" fill="#2C89A5"/>
<path d="M220.254 159.363L206.416 151.358V148.695L220.254 147.622V159.363Z" fill="#166A81"/>
<path d="M252.606 165.853L243.536 151.899L224.88 154.828L220.345 148.696H206.483L208.879 144.169L203.812 131.638L189.691 132.17L172.891 126.836L177.692 110.844L153.695 100.442L144.891 107.107L137.96 92.9785L121.975 88.3188L105.749 88.5851L194.692 37.2532L335.457 118.133L252.606 165.853Z" fill="#CCE9F9"/>
<path d="M208.155 27.6591L201.041 23.5403L193.91 27.6675L201.041 31.778L208.155 27.6591Z" fill="#E3E4E8"/>
<path d="M201.041 31.778V88.61L237.936 67.4665L208.172 27.6591L201.041 31.778Z" fill="#7CAECB"/>
<path d="M201.041 31.778V88.61L164.137 67.4665L193.91 27.6591L201.041 31.778Z" fill="#3390B5"/>
<path d="M208.155 27.709L221.369 45.3328L213.206 44.2095L212.765 53.013L205.351 46.6558L201.049 58.2302V31.778L208.155 27.709Z" fill="#D0D2D6"/>
<path d="M193.91 27.709L181.17 44.5839L188.867 44.2095L189.3 53.013L196.714 46.6558L201.016 58.2302V31.778L193.91 27.709Z" fill="#A8A7AC"/>
<path d="M243.877 22.5584L234.25 17L224.622 22.575L234.25 28.1334L243.877 22.5584Z" fill="#EDEEF0"/>
<path d="M234.25 28.1334V123.433L284.125 94.8507L243.902 22.5667L234.25 28.1334Z" fill="#8FC7E5"/>
<path d="M234.25 28.1334V123.433L184.374 94.8507L224.631 22.5667L234.25 28.1334Z" fill="#51B6E2"/>
<path d="M243.869 22.6333L257.515 47.0802L250.692 44.9334L250.101 56.8324L240.083 48.2368L234.266 63.8885V28.1251L243.869 22.6333Z" fill="#E3E4E8"/>
<path d="M224.622 22.6333L210.976 47.0802L217.799 44.9334L218.39 56.8324L228.408 48.2368L234.225 63.8885V28.1251L224.622 22.6333Z" fill="#CECFD4"/>
<path d="M288.402 77.2436L281.28 73.1331L274.157 77.2519L281.28 81.3625L288.402 77.2436Z" fill="#EDEEF0"/>
<path d="M281.28 81.3708V138.194L318.183 117.051L288.419 77.2519L281.28 81.3708Z" fill="#8FC7E5"/>
<path d="M281.28 81.3708V138.194L244.376 117.051L274.157 77.2519L281.28 81.3708Z" fill="#51B6E2"/>
<path d="M288.394 77.2935L301.608 94.9173L293.445 93.7939L293.012 102.597L285.598 96.2403L281.296 107.815V81.3625L288.394 77.2935Z" fill="#E3E4E8"/>
<path d="M274.157 77.2935L261.409 94.1684L269.106 93.7939L269.547 102.597L276.961 96.2403L281.263 107.815V81.3625L274.157 77.2935Z" fill="#CECFD4"/>
<path d="M136.321 88.4769L146.655 94.4596V141.581L136.321 135.607V88.4769Z" fill="#C3C5CA"/>
<path d="M157.006 88.4769L146.655 94.4596V141.581L157.006 135.607V88.4769Z" fill="#D8DADE"/>
<path d="M136.329 88.4769L146.655 82.4941L157.006 88.4852L146.655 94.4513L136.329 88.4769Z" fill="#F7F8F8"/>
<path d="M146.63 136.314L152.68 139.867V145.142L146.63 141.573V136.314Z" fill="#C3C5CA"/>
<path d="M160.817 135.266L152.68 139.875V145.142L160.817 140.458V135.266Z" fill="#D4D6DA"/>
<path d="M146.638 136.314L154.826 131.704L160.817 135.274L152.679 139.909L146.638 136.314Z" fill="#F1F2F4"/>
<path d="M146.622 132.786L154.627 128.159L157.031 133.044L149.01 137.687L146.622 132.786Z" fill="#D8DADE"/>
<path d="M149.01 137.704V142.954L146.622 141.573V132.778L149.01 137.704Z" fill="#C3C5CA"/>
<path d="M120.228 95.4664L130.571 101.449V148.571L120.228 142.588V95.4664Z" fill="#C3C5CA"/>
<path d="M140.914 95.4664L130.571 101.449V148.571L140.914 142.588V95.4664Z" fill="#D8DADE"/>
<path d="M120.236 95.4665L130.571 89.4837L140.914 95.4748L130.571 101.449L120.236 95.4665Z" fill="#F7F8F8"/>
<path d="M130.529 143.312L136.578 146.865L136.587 152.132L130.529 148.554V143.312Z" fill="#C3C5CA"/>
<path d="M144.725 142.255L136.578 146.873L136.587 152.132L144.725 147.456V142.255Z" fill="#D4D6DA"/>
<path d="M130.537 143.312L138.725 138.694L144.725 142.263L136.587 146.906L130.537 143.312Z" fill="#F1F2F4"/>
<path d="M130.529 139.775L138.534 135.157L140.939 140.033L132.917 144.677L130.529 139.775Z" fill="#D8DADE"/>
<path d="M132.917 144.701V149.944L130.529 148.562V139.775L132.917 144.701Z" fill="#C3C5CA"/>
<path d="M168.922 123.292L179.265 129.274V176.396L168.922 170.413V123.292Z" fill="#C3C5CA"/>
<path d="M189.608 123.292L179.265 129.274V176.396L189.608 170.413V123.292Z" fill="#D8DADE"/>
<path d="M168.93 123.292L179.265 117.326L189.608 123.3L179.265 129.274L168.93 123.292Z" fill="#F7F8F8"/>
<path d="M179.173 171.137L185.223 174.673L185.231 179.957L179.173 176.388V171.137Z" fill="#C3C5CA"/>
<path d="M193.369 170.072L185.223 174.69L185.231 179.957L193.369 175.281V170.072Z" fill="#D4D6DA"/>
<path d="M179.182 171.137L187.37 166.511L193.369 170.089L185.231 174.723L179.182 171.137Z" fill="#F1F2F4"/>
<path d="M179.173 167.601L187.178 162.983L189.575 167.859L181.553 172.502L179.173 167.601Z" fill="#D8DADE"/>
<path d="M181.553 172.527V177.769L179.165 176.388L179.173 167.592L181.553 172.527Z" fill="#C3C5CA"/>
<path d="M194.234 117.7L204.577 123.683V170.804L194.234 164.821V117.7Z" fill="#C3C5CA"/>
<path d="M214.92 117.7L204.577 123.683V170.804L214.92 164.821V117.7Z" fill="#D8DADE"/>
<path d="M194.234 117.692L204.577 111.717L214.92 117.708L204.577 123.683L194.234 117.692Z" fill="#F7F8F8"/>
<path d="M204.569 165.529L210.618 169.073V174.357L204.569 170.779V165.529Z" fill="#C3C5CA"/>
<path d="M218.756 164.472L210.618 169.09L210.627 174.357L218.756 169.681V164.472Z" fill="#D4D6DA"/>
<path d="M204.569 165.529L212.765 160.911L218.756 164.489L210.626 169.123L204.569 165.529Z" fill="#F1F2F4"/>
<path d="M204.561 162.001L212.565 157.383L214.97 162.25L206.949 166.893L204.561 162.001Z" fill="#D8DADE"/>
<path d="M206.949 166.918V172.161L204.561 170.779V161.992L206.949 166.918Z" fill="#C3C5CA"/>
<path d="M122.724 69.2888L131.203 74.04V84.3081L122.724 79.5485V69.2888Z" fill="#A2A1A6"/>
<path d="M141.163 68.3818L131.203 74.04V84.3081L141.163 78.6415V68.3818Z" fill="#C1C3C8"/>
<path d="M122.724 69.2888L132.684 63.8219L141.163 68.3901L131.203 74.04L122.724 69.2888Z" fill="#E1E2E6"/>
<path d="M120.136 80.4638L179.132 114.704V150.551L120.136 116.294V80.4638Z" fill="#C3C5CA"/>
<path d="M214.962 93.977L179.132 114.704V150.551L214.962 129.807V93.977Z" fill="#D8DADE"/>
<path d="M120.153 80.4638L155.966 59.7613L214.962 94.002L179.132 114.696L120.153 80.4638Z" fill="#F1F2F4"/>
<path d="M178.899 87.4368L200.666 99.4772V126.279L178.899 114.247V87.4368Z" fill="#C3C5CA"/>
<path d="M227.476 83.9669L200.666 99.4771V126.279L227.476 110.769V83.9669Z" fill="#D8DADE"/>
<path d="M178.915 87.4368L205.701 71.9681L227.476 83.9836L200.666 99.4605L178.915 87.4368Z" fill="#F1F2F4"/>
<path d="M204.07 107.033L212.183 111.634V128.143L204.07 123.541V107.033Z" fill="#C3C5CA"/>
<path d="M228.691 102.082L212.183 111.634V128.143L228.691 118.582V102.082Z" fill="#D8DADE"/>
<path d="M204.086 107.024L220.578 97.4885L228.691 102.098L212.183 111.617L204.086 107.024Z" fill="#F1F2F4"/>
<path d="M217.699 110.502L219.879 111.726V116.144L217.699 114.921V110.502Z" fill="#342E2D"/>
<path d="M224.306 109.171L219.879 111.726V116.144L224.306 113.589V109.171Z" fill="#413D3E"/>
<path d="M217.699 110.502L222.126 107.94L224.306 109.171L219.879 111.726L217.699 110.502Z" fill="#504F51"/>
<path d="M203.654 102.473L204.66 103.072V106.076L203.654 105.477V102.473Z" fill="#342E2D"/>
<path d="M207.664 101.341L204.66 103.072V106.076L207.664 104.337V101.341Z" fill="#413D3E"/>
<path d="M203.654 102.473L206.657 100.734L207.664 101.341L204.66 103.072L203.654 102.473Z" fill="#504F51"/>
<path d="M215.969 95.6162L216.975 96.2236V99.2275L215.969 98.6201V95.6162Z" fill="#342E2D"/>
<path d="M219.979 94.4846L216.975 96.2237V99.2275L219.979 97.4802V94.4846Z" fill="#413D3E"/>
<path d="M215.969 95.6163L218.972 93.8855L219.979 94.4846L216.975 96.2237L215.969 95.6163Z" fill="#504F51"/>
<path d="M193.394 87.495L197.754 89.933V95.2085L193.394 92.7622V87.495Z" fill="#C3C5CA"/>
<path d="M202.871 87.0207L197.754 89.933V95.2085L202.871 92.3045V87.0207Z" fill="#D8DADE"/>
<path d="M202.197 88.7015L198.495 90.8067V94.7758L202.197 92.6706V88.7015Z" fill="#F3B9BC"/>
<path d="M193.394 87.495L198.511 84.6825L202.871 87.029L197.754 89.933L193.394 87.495Z" fill="#F1F2F4"/>
<path d="M209.894 79.1241L214.246 81.5788V86.8543L209.894 84.4079V79.1241Z" fill="#C3C5CA"/>
<path d="M219.364 78.6665L214.246 81.5788V86.8543L219.364 83.9503V78.6665Z" fill="#D8DADE"/>
<path d="M218.69 80.3473L214.987 82.4442V86.4216L218.69 84.3164V80.3473Z" fill="#F3B9BC"/>
<path d="M209.894 79.1241L215.003 76.3199L219.364 78.6748L214.246 81.5788L209.894 79.1241Z" fill="#F1F2F4"/>
<defs>
<linearGradient id="paint0_linear" x1="0" y1="0" x2="390" y2="240" gradientUnits="userSpaceOnUse">
<stop stop-color="#3ADCFF"/>
<stop offset="1" stop-color="#0338C0"/>
</linearGradient>
</defs>
</svg>
