<?xml version="1.0" encoding="utf-8"?>
<!-- Generator: Adobe Illustrator 25.3.1, SVG Export Plug-In . SVG Version: 6.00 Build 0)  -->
<svg version="1.1" id="Layer_1" xmlns="http://www.w3.org/2000/svg" xmlns:xlink="http://www.w3.org/1999/xlink" x="0px" y="0px"
	 viewBox="0 0 60 60" style="enable-background:new 0 0 60 60;" xml:space="preserve">
<style type="text/css">
	.st0{fill:url(#SVGID_1_);}
	.st1{fill:url(#SVGID_2_);}
</style>
<g>
	<linearGradient id="SVGID_1_" gradientUnits="userSpaceOnUse" x1="24.6612" y1="26.3364" x2="48.8979" y2="52.8512">
		<stop  offset="4.361875e-02" style="stop-color:#DC0023"/>
		<stop  offset="1" style="stop-color:#EDA73E"/>
	</linearGradient>
	<path class="st0" d="M50.3,20.5c0,9-5.8,16.6-13.9,19.4v6.8c0,7.4-6,13.3-13.3,13.3S9.7,54,9.7,46.7V17.8c0-0.7,0-1.3,0.1-2
		c0,0,0,0,0,0c0.5-2,1.2-3.9,2.3-5.7C15.7,4.1,22.3,0,29.8,0C41.1,0,50.3,9.2,50.3,20.5z"/>
	<linearGradient id="SVGID_2_" gradientUnits="userSpaceOnUse" x1="15.8373" y1="48.7219" x2="39.7944" y2="0.2763">
		<stop  offset="0" style="stop-color:#EF803D"/>
		<stop  offset="1" style="stop-color:#F52310"/>
	</linearGradient>
	<path class="st1" d="M50.3,20.5c0,9-5.8,16.6-13.9,19.4c0,0-4.2,1.8-5.2,2.4c0,0-7.7,3.7-10.2,4.9c-3.6,1.8-4.9,6.2-3.1,9.8
		c0.7,1.3,1.6,2.2,2.8,2.9c-6.2-1.1-11-6.6-11-13.1V17.8c0-0.7,0-1.3,0.1-2c0,0,0,0,0,0c0.5-2,1.2-3.9,2.3-5.7
		C15.7,4.1,22.3,0,29.8,0C41.1,0,50.3,9.2,50.3,20.5z"/>
</g>
</svg>
